<?xml version="1.0" encoding="UTF-8" standalone="no"?>
<svg
   width="210mm"
   height="297mm"
   viewBox="0 0 210 297"
   version="1.1"
   id="svg2198"
   inkscape:version="1.1-dev (9017afb, 2021-01-01)"
   sodipodi:docname="trabajo_original.svg"
   xmlns:inkscape="http://www.inkscape.org/namespaces/inkscape"
   xmlns:sodipodi="http://sodipodi.sourceforge.net/DTD/sodipodi-0.dtd"
   xmlns="http://www.w3.org/2000/svg"
   xmlns:svg="http://www.w3.org/2000/svg"
   xmlns:d="https://loading.io/stock/">
  <sodipodi:namedview
     id="namedview2200"
     pagecolor="#ffffff"
     bordercolor="#666666"
     borderopacity="1.0"
     objecttolerance="10.0"
     gridtolerance="10.0"
     guidetolerance="10.0"
     inkscape:pageshadow="2"
     inkscape:pageopacity="0.0"
     inkscape:pagecheckerboard="0"
     inkscape:document-units="mm"
     showgrid="false"
     inkscape:zoom="0.85423392"
     inkscape:cx="610.48852"
     inkscape:cy="226.51875"
     inkscape:window-width="1680"
     inkscape:window-height="997"
     inkscape:window-x="0"
     inkscape:window-y="25"
     inkscape:window-maximized="0"
     inkscape:current-layer="layer1" />
  <defs
     id="defs2195">
    <marker
       id="DistanceX"
       orient="auto"
       refX="0.0"
       refY="0.0"
       style="overflow:visible">
      <path
         d="M 3,-3 L -3,3 M 0,-5 L  0,5"
         style="stroke:#000000; stroke-width:0.5"
         id="path2354" />
    </marker>
    <pattern
       id="Hatch"
       patternUnits="userSpaceOnUse"
       width="8"
       height="8"
       x="0"
       y="0">
      <path
         d="M8 4 l-4,4"
         stroke="#000000"
         stroke-width="0.25"
         linecap="square"
         id="path2357" />
      <path
         d="M6 2 l-4,4"
         stroke="#000000"
         stroke-width="0.25"
         linecap="square"
         id="path2359" />
      <path
         d="M4 0 l-4,4"
         stroke="#000000"
         stroke-width="0.25"
         linecap="square"
         id="path2361" />
    </pattern>
    <symbol
       id="*Model_Space" />
    <symbol
       id="*Paper_Space" />
    <symbol
       id="*Paper_Space0" />
    <marker
       id="DistanceX-9"
       orient="auto"
       refX="0.0"
       refY="0.0"
       style="overflow:visible">
      <path
         d="M 3,-3 L -3,3 M 0,-5 L  0,5"
         style="stroke:#000000; stroke-width:0.5"
         id="path2675" />
    </marker>
    <pattern
       id="Hatch-6"
       patternUnits="userSpaceOnUse"
       width="8"
       height="8"
       x="0"
       y="0">
      <path
         d="M8 4 l-4,4"
         stroke="#000000"
         stroke-width="0.25"
         linecap="square"
         id="path2678" />
      <path
         d="M6 2 l-4,4"
         stroke="#000000"
         stroke-width="0.25"
         linecap="square"
         id="path2680" />
      <path
         d="M4 0 l-4,4"
         stroke="#000000"
         stroke-width="0.25"
         linecap="square"
         id="path2682" />
    </pattern>
    <symbol
       id="*Model_Space-1" />
    <symbol
       id="*Paper_Space-1" />
    <symbol
       id="*Paper_Space0-4" />
    <marker
       id="DistanceX-0"
       orient="auto"
       refX="0.0"
       refY="0.0"
       style="overflow:visible">
      <path
         d="M 3,-3 L -3,3 M 0,-5 L  0,5"
         style="stroke:#000000; stroke-width:0.5"
         id="path8818" />
    </marker>
    <pattern
       id="Hatch-7"
       patternUnits="userSpaceOnUse"
       width="8"
       height="8"
       x="0"
       y="0">
      <path
         d="M8 4 l-4,4"
         stroke="#000000"
         stroke-width="0.25"
         linecap="square"
         id="path8821" />
      <path
         d="M6 2 l-4,4"
         stroke="#000000"
         stroke-width="0.25"
         linecap="square"
         id="path8823" />
      <path
         d="M4 0 l-4,4"
         stroke="#000000"
         stroke-width="0.25"
         linecap="square"
         id="path8825" />
    </pattern>
    <symbol
       id="*Model_Space-14" />
    <symbol
       id="*Paper_Space-0" />
    <symbol
       id="*Paper_Space0-8" />
  </defs>
  <g
     inkscape:label="Capa 1"
     inkscape:groupmode="layer"
     id="layer1">
    <g
       id="g1706"
       transform="translate(-58.01373,-34.027198)">
      <g
         class="ldl-scale"
         id="g25202"
         transform="matrix(1.2366243,0,0,1.1382972,-3.81748,4.0046617)"
         style="fill:#000000;stroke-width:0.104812">
        <path
           d="M 22.2,84.9 C 14.1,84.9 7.5,78.3 7.5,70.2 v -9.7 c 0,-8.1 6.6,-14.7 14.7,-14.7 z"
           style="fill:#000000;stroke-width:0.104812"
           id="path25194" />
        <path
           d="m 77.8,84.9 v -39 c 8.1,0 14.7,6.6 14.7,14.7 v 9.7 c 0,8.1 -6.6,14.6 -14.7,14.6 z"
           style="fill:#000000;stroke-width:0.104812"
           id="path25196" />
        <path
           d="M 26.6,80.1 V 45.9 c 0,-13.1 10.7,-24.2 23.8,-24 12.7,0.2 23,10.6 23,23.4 v 34.8 c 0,2.7 2.2,4.9 4.9,4.9 V 46 C 78.3,30.6 66.2,17.5 50.8,17.1 34.8,16.6 21.6,29.5 21.6,45.4 V 85 c 2.8,-0.1 5,-2.3 5,-4.9 z"
           style="fill:#000000;stroke-width:0.104812"
           id="path25198" />
        <metadata
           id="metadata25200">
          <d:name
             style="animation-play-state:paused">headset</d:name>
          <d:tags
             style="animation-play-state:paused">earphone,earbud,music,listen,radio,headphone,headset,web application</d:tags>
          <d:license
             style="animation-play-state:paused">pro</d:license>
          <d:slug
             style="animation-play-state:paused">6et4m5</d:slug>
        </metadata>
      </g>
      <g
         style="fill:#000000;stroke-width:0.316458"
         id="g934-6-2"
         transform="matrix(2.9189497,0,0,2.9189497,22.986339,44.211268)">
        <path
           d="M 0,0 H 24 V 24 H 0 Z"
           fill="none"
           id="path922-1-6"
           style="stroke-width:0.100146" />
        <path
           d="m 19.43,12.98 c 0.04,-0.32 0.07,-0.64 0.07,-0.98 0,-0.34 -0.03,-0.66 -0.07,-0.98 l 2.11,-1.65 c 0.19,-0.15 0.24,-0.42 0.12,-0.64 l -2,-3.46 C 19.57,5.11 19.4,5.02 19.22,5.02 c -0.06,0 -0.12,0.01 -0.17,0.03 l -2.49,1 C 16.04,5.65 15.48,5.32 14.87,5.07 L 14.49,2.42 C 14.46,2.18 14.25,2 14,2 H 10 C 9.75,2 9.54,2.18 9.51,2.42 L 9.13,5.07 C 8.52,5.32 7.96,5.66 7.44,6.05 l -2.49,-1 C 4.89,5.03 4.83,5.02 4.77,5.02 4.6,5.02 4.43,5.11 4.34,5.27 l -2,3.46 C 2.21,8.95 2.27,9.22 2.46,9.37 l 2.11,1.65 C 4.53,11.34 4.5,11.67 4.5,12 c 0,0.33 0.03,0.66 0.07,0.98 l -2.11,1.65 c -0.19,0.15 -0.24,0.42 -0.12,0.64 l 2,3.46 c 0.09,0.16 0.26,0.25 0.44,0.25 0.06,0 0.12,-0.01 0.17,-0.03 l 2.49,-1 c 0.52,0.4 1.08,0.73 1.69,0.98 l 0.38,2.65 C 9.54,21.82 9.75,22 10,22 h 4 c 0.25,0 0.46,-0.18 0.49,-0.42 l 0.38,-2.65 c 0.61,-0.25 1.17,-0.59 1.69,-0.98 l 2.49,1 c 0.06,0.02 0.12,0.03 0.18,0.03 0.17,0 0.34,-0.09 0.43,-0.25 l 2,-3.46 c 0.12,-0.22 0.07,-0.49 -0.12,-0.64 z m -1.98,-1.71 c 0.04,0.31 0.05,0.52 0.05,0.73 0,0.21 -0.02,0.43 -0.05,0.73 l -0.14,1.13 0.89,0.7 1.08,0.84 -0.7,1.21 -1.27,-0.51 -1.04,-0.42 -0.9,0.68 c -0.43,0.32 -0.84,0.56 -1.25,0.73 L 13.06,17.52 12.9,18.65 12.7,20 H 11.3 L 11.11,18.65 10.95,17.52 9.89,17.09 C 9.46,16.91 9.06,16.68 8.66,16.38 L 7.75,15.68 6.69,16.11 5.42,16.62 4.72,15.41 5.8,14.57 6.69,13.87 6.55,12.74 C 6.52,12.43 6.5,12.2 6.5,12 6.5,11.8 6.52,11.57 6.55,11.27 L 6.69,10.14 5.8,9.44 4.72,8.6 5.42,7.39 6.69,7.9 7.73,8.32 8.63,7.64 C 9.06,7.32 9.47,7.08 9.88,6.91 L 10.94,6.48 11.1,5.35 11.3,4 h 1.39 l 0.19,1.35 0.16,1.13 1.06,0.43 c 0.43,0.18 0.83,0.41 1.23,0.71 l 0.91,0.7 1.06,-0.43 1.27,-0.51 0.7,1.21 -1.07,0.85 -0.89,0.7 z M 12,8 c -2.21,0 -4,1.79 -4,4 0,2.21 1.79,4 4,4 2.21,0 4,-1.79 4,-4 0,-2.21 -1.79,-4 -4,-4 z m 0,6 c -1.1,0 -2,-0.9 -2,-2 0,-1.1 0.9,-2 2,-2 1.1,0 2,0.9 2,2 0,1.1 -0.9,2 -2,2 z"
           id="path924-4-5"
           style="stroke-width:0.316458" />
      </g>
      <text
         xml:space="preserve"
         style="font-size:16.3402px;line-height:1.25;font-family:'Quickening Outline';-inkscape-font-specification:'Quickening Outline';stroke-width:0.264582"
         x="6.7379627"
         y="123.22388"
         id="text33263"><tspan
           sodipodi:role="line"
           id="tspan33261"
           style="font-style:normal;font-variant:normal;font-weight:normal;font-stretch:normal;font-size:16.3402px;font-family:'Avenir Next Condensed';-inkscape-font-specification:'Avenir Next Condensed, Normal';font-variant-ligatures:normal;font-variant-caps:normal;font-variant-numeric:normal;font-variant-east-asian:normal;stroke-width:0.264582"
           x="6.7379627"
           y="123.22388">Baleakers Podcast</tspan></text>
      <text
         xml:space="preserve"
         style="font-size:16.3402px;line-height:1.25;font-family:'Quickening Outline';-inkscape-font-specification:'Quickening Outline';stroke-width:0.264582"
         x="6.7379627"
         y="123.22388"
         id="text1086"><tspan
           sodipodi:role="line"
           id="tspan1084"
           style="font-style:normal;font-variant:normal;font-weight:normal;font-stretch:normal;font-size:16.3402px;font-family:'Avenir Next Condensed';-inkscape-font-specification:'Avenir Next Condensed, Normal';font-variant-ligatures:normal;font-variant-caps:normal;font-variant-numeric:normal;font-variant-east-asian:normal;stroke-width:0.264582"
           x="6.7379627"
           y="123.22388"><tspan
   style="fill:#ff0000"
   id="tspan2456">Baleakers</tspan> Podcast</tspan></text>
    </g>
    <polyline
       points="263.44,352.31 263.44,353.06 263.44,353.82 263.45,354.57 263.47,355.32 263.49,356.07 263.51,356.81 263.53,357.56 263.56,358.31 263.6,359.05 263.63,359.8 263.68,360.54 263.72,361.28 263.77,362.02 263.82,362.76 263.88,363.5 263.94,364.24 264.01,364.98 264.07,365.71 264.15,366.45 264.22,367.18 264.3,367.91 264.39,368.64 264.47,369.37 264.57,370.1 264.66,370.83 264.76,371.56 264.86,372.28 264.97,373 265.08,373.73 265.19,374.45 265.31,375.17 265.43,375.89 265.56,376.61 265.68,377.32 265.82,378.04 265.95,378.75 266.09,379.46 266.23,380.18 266.38,380.89 266.53,381.59 266.69,382.3 266.84,383.01 267,383.71 267.17,384.41 267.34,385.12 267.51,385.82 267.68,386.52 267.86,387.21 268.05,387.91 268.23,388.6 268.42,389.3 268.61,389.99 268.81,390.68 269.01,391.37 269.21,392.06 269.42,392.74 269.63,393.43 269.84,394.11 270.06,394.79 270.28,395.47 270.51,396.15 270.73,396.83 270.96,397.5 271.2,398.17 271.44,398.85 271.68,399.52 271.92,400.19 272.17,400.85 272.42,401.52 272.67,402.18 272.93,402.84 273.19,403.5 273.45,404.16 273.72,404.82 273.99,405.48 274.27,406.13 274.54,406.78 274.82,407.43 275.11,408.08 275.39,408.73 275.68,409.37 275.98,410.02 276.27,410.66 276.57,411.3 276.87,411.94 277.18,412.57 277.49,413.21 277.8,413.84 278.11,414.47 278.43,415.1 278.75,415.73 279.08,416.36 279.41,416.98 279.74,417.6 280.07,418.22 280.41,418.84 280.75,419.45 281.09,420.07 281.43,420.68 281.78,421.29 282.14,421.9 282.49,422.51 282.85,423.11 283.21,423.71 283.57,424.31 283.94,424.91 284.31,425.51 284.68,426.1 285.06,426.69 285.43,427.29 285.81,427.87 286.2,428.46 286.59,429.04 286.98,429.63 287.37,430.21 287.76,430.78 288.16,431.36 288.56,431.93 288.97,432.51 289.37,433.07 289.78,433.64 290.2,434.21 290.61,434.77 291.03,435.33 291.45,435.89 291.87,436.45 292.3,437 292.73,437.55"
       style="fill:none;stroke:#000000;stroke-width:0.5"
       id="polyline9569"
       transform="matrix(0.26458333,0,0,0.26458333,60.218461,-23.367036)" />
    <polyline
       points="292.73,437.55 264.5,487.28"
       style="fill:none;stroke:#000000;stroke-width:0.5"
       id="polyline9571"
       transform="matrix(0.26458333,0,0,0.26458333,60.218461,-23.367036)" />
    <polyline
       points="264.5,487.28 254.77,479.8"
       style="fill:none;stroke:#000000;stroke-width:0.5"
       id="polyline9573"
       transform="matrix(0.26458333,0,0,0.26458333,60.218461,-23.367036)" />
    <polyline
       points="254.77,479.8 218.05,494.69"
       style="fill:none;stroke:#000000;stroke-width:0.5"
       id="polyline9575"
       transform="matrix(0.26458333,0,0,0.26458333,60.218461,-23.367036)" />
    <polyline
       points="218.05,494.69 174.06,512.36"
       style="fill:none;stroke:#000000;stroke-width:0.5"
       id="polyline9577"
       transform="matrix(0.26458333,0,0,0.26458333,60.218461,-23.367036)" />
    <polyline
       points="174.06,512.36 149.81,470.44"
       style="fill:none;stroke:#000000;stroke-width:0.5"
       id="polyline9579"
       transform="matrix(0.26458333,0,0,0.26458333,60.218461,-23.367036)" />
    <polyline
       points="149.81,470.44 187.22,441.34"
       style="fill:none;stroke:#000000;stroke-width:0.5"
       id="polyline9581"
       transform="matrix(0.26458333,0,0,0.26458333,60.218461,-23.367036)" />
    <polyline
       points="187.22,441.34 218.05,417.09"
       style="fill:none;stroke:#000000;stroke-width:0.5"
       id="polyline9583"
       transform="matrix(0.26458333,0,0,0.26458333,60.218461,-23.367036)" />
    <polyline
       points="218.05,417.09 213.2,377.95"
       style="fill:none;stroke:#000000;stroke-width:0.5"
       id="polyline9585"
       transform="matrix(0.26458333,0,0,0.26458333,60.218461,-23.367036)" />
    <polyline
       points="213.2,377.95 213.18,377.7 213.15,377.44 213.13,377.2 213.11,376.95 213.08,376.7 213.06,376.45 213.04,376.21 213.01,375.96 212.99,375.72 212.97,375.48 212.94,375.24 212.92,375 212.9,374.76 212.87,374.52 212.85,374.28 212.83,374.05 212.81,373.81 212.79,373.58 212.76,373.34 212.74,373.11 212.72,372.88 212.7,372.65 212.68,372.42 212.66,372.19 212.64,371.96 212.62,371.73 212.59,371.5 212.57,371.28 212.55,371.05 212.53,370.83 212.51,370.61 212.49,370.38 212.47,370.16 212.45,369.94 212.44,369.72 212.42,369.5 212.4,369.29 212.38,369.07 212.36,368.85 212.34,368.64 212.32,368.42 212.3,368.21 212.29,368 212.27,367.78 212.25,367.57 212.23,367.36 212.22,367.15 212.2,366.94 212.18,366.73 212.16,366.53 212.15,366.32 212.13,366.11 212.11,365.91 212.1,365.7 212.08,365.5 212.07,365.3 212.05,365.1 212.04,364.89 212.02,364.69 212.01,364.49 211.99,364.29 211.98,364.09 211.96,363.9 211.95,363.7 211.93,363.5 211.92,363.31 211.91,363.11 211.89,362.92 211.88,362.72 211.87,362.53 211.84,362.15 211.81,361.76 211.79,361.39 211.77,361.01 211.74,360.64 211.72,360.26 211.7,359.89 211.68,359.53 211.66,359.16 211.65,358.8 211.63,358.44 211.61,358.08 211.6,357.73 211.58,357.38 211.57,357.02 211.55,356.68 211.54,356.33 211.53,355.98 211.52,355.64 211.51,355.3 211.5,354.96 211.5,354.62 211.49,354.29 211.48,353.95 211.48,353.62 211.48,353.29 211.47,352.96 211.47,352.64 211.47,352.31"
       style="fill:none;stroke:#000000;stroke-width:0.5"
       id="polyline9587"
       transform="matrix(0.26458333,0,0,0.26458333,60.218461,-23.367036)" />
    <polyline
       points="211.47,352.31 211.47,351.99 211.47,351.66 211.48,351.33 211.48,351 211.48,350.67 211.49,350.33 211.5,350 211.5,349.66 211.51,349.32 211.52,348.98 211.53,348.64 211.54,348.29 211.55,347.95 211.57,347.6 211.58,347.25 211.6,346.9 211.61,346.54 211.63,346.19 211.65,345.83 211.66,345.47 211.68,345.11 211.7,344.74 211.72,344.37 211.74,344 211.77,343.63 211.79,343.26 211.81,342.88 211.84,342.5 211.87,342.12 211.89,341.74 211.92,341.35 211.95,340.97 211.98,340.57 212.01,340.18 212.04,339.78 212.07,339.39 212.1,338.98 212.11,338.78 212.13,338.58 212.15,338.38 212.16,338.17 212.18,337.97 212.2,337.76 212.22,337.56 212.23,337.35 212.25,337.14 212.27,336.94 212.29,336.73 212.3,336.52 212.32,336.31 212.34,336.1 212.36,335.88 212.38,335.67 212.4,335.46 212.42,335.25 212.44,335.03 212.45,334.82 212.47,334.6 212.49,334.38 212.51,334.17 212.53,333.95 212.55,333.73 212.57,333.51 212.59,333.29 212.62,333.07 212.64,332.84 212.66,332.62 212.68,332.4 212.7,332.17 212.72,331.95 212.74,331.72 212.76,331.49 212.79,331.27 212.81,331.04 212.83,330.81 212.85,330.58 212.87,330.35 212.9,330.11 212.92,329.88 212.94,329.65 212.97,329.41 212.99,329.18 213.01,328.94 213.04,328.7 213.06,328.47 213.08,328.23 213.11,327.99 213.13,327.75 213.15,327.51 213.18,327.26 213.2,327.02"
       style="fill:none;stroke:#000000;stroke-width:0.5"
       id="polyline9589"
       transform="matrix(0.26458333,0,0,0.26458333,60.218461,-23.367036)" />
    <polyline
       points="213.2,327.02 218.05,287.88"
       style="fill:none;stroke:#000000;stroke-width:0.5"
       id="polyline9591"
       transform="matrix(0.26458333,0,0,0.26458333,60.218461,-23.367036)" />
    <polyline
       points="218.05,287.88 187.22,263.63"
       style="fill:none;stroke:#000000;stroke-width:0.5"
       id="polyline9593"
       transform="matrix(0.26458333,0,0,0.26458333,60.218461,-23.367036)" />
    <polyline
       points="187.22,263.63 149.81,234.53"
       style="fill:none;stroke:#000000;stroke-width:0.5"
       id="polyline9595"
       transform="matrix(0.26458333,0,0,0.26458333,60.218461,-23.367036)" />
    <polyline
       points="149.81,234.53 174.06,192.61"
       style="fill:none;stroke:#000000;stroke-width:0.5"
       id="polyline9597"
       transform="matrix(0.26458333,0,0,0.26458333,60.218461,-23.367036)" />
    <polyline
       points="174.06,192.61 218.05,210.28"
       style="fill:none;stroke:#000000;stroke-width:0.5"
       id="polyline9599"
       transform="matrix(0.26458333,0,0,0.26458333,60.218461,-23.367036)" />
    <polyline
       points="218.05,210.28 254.08,224.83"
       style="fill:none;stroke:#000000;stroke-width:0.5"
       id="polyline9601"
       transform="matrix(0.26458333,0,0,0.26458333,60.218461,-23.367036)" />
    <polyline
       points="254.08,224.83 285.26,201.27"
       style="fill:none;stroke:#000000;stroke-width:0.5"
       id="polyline9603"
       transform="matrix(0.26458333,0,0,0.26458333,60.218461,-23.367036)" />
    <polyline
       points="285.26,201.27 285.61,201.01 285.96,200.75 286.31,200.49 286.65,200.24 287,199.98 287.35,199.73 287.7,199.47 288.05,199.22 288.39,198.97 288.74,198.72 289.09,198.47 289.43,198.22 289.78,197.98 290.12,197.73 290.47,197.48 290.82,197.24 291.16,197 291.51,196.75 291.85,196.51 292.19,196.27 292.54,196.03 292.88,195.8 293.23,195.56 293.57,195.32 293.91,195.09 294.26,194.85 294.6,194.62 294.94,194.39 295.29,194.16 295.63,193.93 295.97,193.7 296.31,193.47 296.66,193.24 297,193.01 297.34,192.79 297.68,192.56 298.02,192.34 298.36,192.12 298.7,191.9 299.04,191.68 299.38,191.46 299.72,191.24 300.06,191.02 300.4,190.8 300.74,190.59 301.08,190.37 301.42,190.16 301.76,189.95 302.1,189.74 302.44,189.52 302.78,189.32 303.12,189.11 303.46,188.9 303.8,188.69 304.13,188.49 304.47,188.28 304.81,188.08 305.15,187.87 305.49,187.67 305.82,187.47 306.16,187.27 306.5,187.07 306.83,186.87 307.17,186.67 307.51,186.48 307.85,186.28 308.18,186.09 308.52,185.89 308.85,185.7 309.19,185.51 309.53,185.32 309.86,185.13 310.2,184.94 310.54,184.75 310.87,184.57 311.21,184.38 311.54,184.2 311.88,184.01 312.21,183.83 312.55,183.65 312.88,183.46 313.22,183.28 313.55,183.1 313.89,182.93 314.22,182.75 314.56,182.57 314.89,182.4 315.23,182.22 315.56,182.05 315.9,181.87 316.23,181.7 316.56,181.53 316.9,181.36 317.23,181.19 317.57,181.02 317.9,180.86 318.23,180.69 318.57,180.52 318.9,180.36 319.24,180.2 319.57,180.03 319.9,179.87 320.24,179.71 320.57,179.55 320.9,179.39 321.24,179.23 321.57,179.07 321.9,178.92 322.24,178.76 322.57,178.61 322.9,178.45 323.24,178.3 323.57,178.15 323.9,178 324.24,177.85 324.57,177.7 324.9,177.55 325.23,177.4 325.57,177.26 325.9,177.11 326.23,176.97 326.57,176.82 326.9,176.68 327.23,176.54 327.56,176.4 327.9,176.26 328.23,176.12 328.56,175.98"
       style="fill:none;stroke:#000000;stroke-width:0.5"
       id="polyline9605"
       transform="matrix(0.26458333,0,0,0.26458333,60.218461,-23.367036)" />
    <polyline
       points="328.56,175.98 365.29,161.08"
       style="fill:none;stroke:#000000;stroke-width:0.5"
       id="polyline9607"
       transform="matrix(0.26458333,0,0,0.26458333,60.218461,-23.367036)" />
    <polyline
       points="365.29,161.08 370.83,121.94"
       style="fill:none;stroke:#000000;stroke-width:0.5"
       id="polyline9609"
       transform="matrix(0.26458333,0,0,0.26458333,60.218461,-23.367036)" />
    <polyline
       points="370.83,121.94 377.76,75.17"
       style="fill:none;stroke:#000000;stroke-width:0.5"
       id="polyline9611"
       transform="matrix(0.26458333,0,0,0.26458333,60.218461,-23.367036)" />
    <polyline
       points="377.76,75.17 400,75.17"
       style="fill:none;stroke:#000000;stroke-width:0.5"
       id="polyline9613"
       transform="matrix(0.26458333,0,0,0.26458333,60.218461,-23.367036)" />
    <polyline
       points="400,75.17 422.24,75.17"
       style="fill:none;stroke:#000000;stroke-width:0.5"
       id="polyline9615"
       transform="matrix(0.26458333,0,0,0.26458333,60.218461,-23.367036)" />
    <polyline
       points="422.24,75.17 429.17,121.94"
       style="fill:none;stroke:#000000;stroke-width:0.5"
       id="polyline9617"
       transform="matrix(0.26458333,0,0,0.26458333,60.218461,-23.367036)" />
    <polyline
       points="429.17,121.94 434.71,161.08"
       style="fill:none;stroke:#000000;stroke-width:0.5"
       id="polyline9619"
       transform="matrix(0.26458333,0,0,0.26458333,60.218461,-23.367036)" />
    <polyline
       points="434.71,161.08 471.44,175.98"
       style="fill:none;stroke:#000000;stroke-width:0.5"
       id="polyline9621"
       transform="matrix(0.26458333,0,0,0.26458333,60.218461,-23.367036)" />
    <polyline
       points="471.44,175.98 471.77,176.12 472.1,176.26 472.44,176.4 472.77,176.54 473.1,176.68 473.43,176.82 473.77,176.97 474.1,177.11 474.43,177.26 474.77,177.4 475.1,177.55 475.43,177.7 475.76,177.85 476.1,178 476.43,178.15 476.76,178.3 477.1,178.45 477.43,178.61 477.76,178.76 478.1,178.92 478.43,179.07 478.76,179.23 479.1,179.39 479.43,179.55 479.76,179.71 480.1,179.87 480.43,180.03 480.76,180.2 481.1,180.36 481.43,180.52 481.77,180.69 482.1,180.86 482.43,181.02 482.77,181.19 483.1,181.36 483.44,181.53 483.77,181.7 484.1,181.87 484.44,182.05 484.77,182.22 485.11,182.4 485.44,182.57 485.78,182.75 486.11,182.93 486.45,183.1 486.78,183.28 487.12,183.46 487.45,183.65 487.79,183.83 488.12,184.01 488.46,184.2 488.79,184.38 489.13,184.57 489.46,184.75 489.8,184.94 490.14,185.13 490.47,185.32 490.81,185.51 491.15,185.7 491.48,185.89 491.82,186.09 492.15,186.28 492.49,186.48 492.83,186.67 493.17,186.87 493.5,187.07 493.84,187.27 494.18,187.47 494.51,187.67 494.85,187.87 495.19,188.08 495.53,188.28 495.87,188.49 496.2,188.69 496.54,188.9 496.88,189.11 497.22,189.32 497.56,189.52 497.9,189.74 498.24,189.95 498.58,190.16 498.92,190.37 499.26,190.59 499.6,190.8 499.94,191.02 500.28,191.24 500.62,191.46 500.96,191.68 501.3,191.9 501.64,192.12 501.98,192.34 502.32,192.56 502.66,192.79 503,193.01 503.34,193.24 503.69,193.47 504.03,193.7 504.37,193.93 504.71,194.16 505.06,194.39 505.4,194.62 505.74,194.85 506.09,195.09 506.43,195.32 506.77,195.56 507.12,195.8 507.46,196.03 507.81,196.27 508.15,196.51 508.49,196.75 508.84,197 509.18,197.24 509.53,197.48 509.88,197.73 510.22,197.98 510.57,198.22 510.91,198.47 511.26,198.72 511.61,198.97 511.95,199.22 512.3,199.47 512.65,199.73 513,199.98 513.35,200.24 513.69,200.49 514.04,200.75 514.39,201.01 514.74,201.27"
       style="fill:none;stroke:#000000;stroke-width:0.5"
       id="polyline9623"
       transform="matrix(0.26458333,0,0,0.26458333,60.218461,-23.367036)" />
    <polyline
       points="514.74,201.27 545.92,224.83"
       style="fill:none;stroke:#000000;stroke-width:0.5"
       id="polyline9625"
       transform="matrix(0.26458333,0,0,0.26458333,60.218461,-23.367036)" />
    <polyline
       points="545.92,224.83 581.95,210.28"
       style="fill:none;stroke:#000000;stroke-width:0.5"
       id="polyline9627"
       transform="matrix(0.26458333,0,0,0.26458333,60.218461,-23.367036)" />
    <polyline
       points="581.95,210.28 625.94,192.61"
       style="fill:none;stroke:#000000;stroke-width:0.5"
       id="polyline9629"
       transform="matrix(0.26458333,0,0,0.26458333,60.218461,-23.367036)" />
    <polyline
       points="625.94,192.61 650.19,234.53"
       style="fill:none;stroke:#000000;stroke-width:0.5"
       id="polyline9631"
       transform="matrix(0.26458333,0,0,0.26458333,60.218461,-23.367036)" />
    <polyline
       points="650.19,234.53 612.78,263.63"
       style="fill:none;stroke:#000000;stroke-width:0.5"
       id="polyline9633"
       transform="matrix(0.26458333,0,0,0.26458333,60.218461,-23.367036)" />
    <polyline
       points="612.78,263.63 581.95,287.88"
       style="fill:none;stroke:#000000;stroke-width:0.5"
       id="polyline9635"
       transform="matrix(0.26458333,0,0,0.26458333,60.218461,-23.367036)" />
    <polyline
       points="581.95,287.88 586.8,327.02"
       style="fill:none;stroke:#000000;stroke-width:0.5"
       id="polyline9637"
       transform="matrix(0.26458333,0,0,0.26458333,60.218461,-23.367036)" />
    <polyline
       points="586.8,327.02 586.82,327.26 586.85,327.51 586.87,327.75 586.89,327.99 586.92,328.23 586.94,328.47 586.96,328.7 586.99,328.94 587.01,329.18 587.03,329.41 587.06,329.65 587.08,329.88 587.1,330.11 587.13,330.35 587.15,330.58 587.17,330.81 587.19,331.04 587.21,331.27 587.24,331.49 587.26,331.72 587.28,331.95 587.3,332.17 587.32,332.4 587.34,332.62 587.36,332.84 587.38,333.07 587.41,333.29 587.43,333.51 587.45,333.73 587.47,333.95 587.49,334.17 587.51,334.38 587.53,334.6 587.55,334.82 587.56,335.03 587.58,335.25 587.6,335.46 587.62,335.67 587.64,335.88 587.66,336.1 587.68,336.31 587.7,336.52 587.71,336.73 587.73,336.94 587.75,337.14 587.77,337.35 587.78,337.56 587.8,337.76 587.82,337.97 587.84,338.17 587.85,338.38 587.87,338.58 587.89,338.78 587.9,338.98 587.93,339.39 587.96,339.78 587.99,340.18 588.02,340.57 588.05,340.97 588.08,341.35 588.11,341.74 588.13,342.12 588.16,342.5 588.19,342.88 588.21,343.26 588.23,343.63 588.26,344 588.28,344.37 588.3,344.74 588.32,345.11 588.34,345.47 588.35,345.83 588.37,346.19 588.39,346.54 588.4,346.9 588.42,347.25 588.43,347.6 588.45,347.95 588.46,348.29 588.47,348.64 588.48,348.98 588.49,349.32 588.5,349.66 588.5,350 588.51,350.33 588.52,350.67 588.52,351 588.52,351.33 588.53,351.66 588.53,351.99 588.53,352.31"
       style="fill:none;stroke:#000000;stroke-width:0.5"
       id="polyline9639"
       transform="matrix(0.26458333,0,0,0.26458333,60.218461,-23.367036)" />
    <polyline
       points="588.53,352.31 588.53,352.64 588.53,352.96 588.52,353.29 588.52,353.62 588.52,353.95 588.51,354.29 588.5,354.62 588.5,354.96 588.49,355.3 588.48,355.64 588.47,355.98 588.46,356.33 588.45,356.68 588.43,357.02 588.42,357.38 588.4,357.73 588.39,358.08 588.37,358.44 588.35,358.8 588.34,359.16 588.32,359.53 588.3,359.89 588.28,360.26 588.26,360.64 588.23,361.01 588.21,361.39 588.19,361.76 588.16,362.15 588.13,362.53 588.12,362.72 588.11,362.92 588.09,363.11 588.08,363.31 588.07,363.5 588.05,363.7 588.04,363.9 588.02,364.09 588.01,364.29 587.99,364.49 587.98,364.69 587.96,364.89 587.95,365.1 587.93,365.3 587.92,365.5 587.9,365.7 587.89,365.91 587.87,366.11 587.85,366.32 587.84,366.53 587.82,366.73 587.8,366.94 587.78,367.15 587.77,367.36 587.75,367.57 587.73,367.78 587.71,368 587.7,368.21 587.68,368.42 587.66,368.64 587.64,368.85 587.62,369.07 587.6,369.29 587.58,369.5 587.56,369.72 587.55,369.94 587.53,370.16 587.51,370.38 587.49,370.61 587.47,370.83 587.45,371.05 587.43,371.28 587.41,371.5 587.38,371.73 587.36,371.96 587.34,372.19 587.32,372.42 587.3,372.65 587.28,372.88 587.26,373.11 587.24,373.34 587.21,373.58 587.19,373.81 587.17,374.05 587.15,374.28 587.13,374.52 587.1,374.76 587.08,375 587.06,375.24 587.03,375.48 587.01,375.72 586.99,375.96 586.96,376.21 586.94,376.45 586.92,376.7 586.89,376.95 586.87,377.2 586.85,377.44 586.82,377.7 586.8,377.95"
       style="fill:none;stroke:#000000;stroke-width:0.5"
       id="polyline9641"
       transform="matrix(0.26458333,0,0,0.26458333,60.218461,-23.367036)" />
    <polyline
       points="586.8,377.95 581.95,417.09"
       style="fill:none;stroke:#000000;stroke-width:0.5"
       id="polyline9643"
       transform="matrix(0.26458333,0,0,0.26458333,60.218461,-23.367036)" />
    <polyline
       points="581.95,417.09 612.78,441.34"
       style="fill:none;stroke:#000000;stroke-width:0.5"
       id="polyline9645"
       transform="matrix(0.26458333,0,0,0.26458333,60.218461,-23.367036)" />
    <polyline
       points="612.78,441.34 650.19,470.44"
       style="fill:none;stroke:#000000;stroke-width:0.5"
       id="polyline9647"
       transform="matrix(0.26458333,0,0,0.26458333,60.218461,-23.367036)" />
    <polyline
       points="650.19,470.44 625.94,512.36"
       style="fill:none;stroke:#000000;stroke-width:0.5"
       id="polyline9649"
       transform="matrix(0.26458333,0,0,0.26458333,60.218461,-23.367036)" />
    <polyline
       points="625.94,512.36 581.95,494.69"
       style="fill:none;stroke:#000000;stroke-width:0.5"
       id="polyline9651"
       transform="matrix(0.26458333,0,0,0.26458333,60.218461,-23.367036)" />
    <polyline
       points="581.95,494.69 545.23,479.8"
       style="fill:none;stroke:#000000;stroke-width:0.5"
       id="polyline9653"
       transform="matrix(0.26458333,0,0,0.26458333,60.218461,-23.367036)" />
    <polyline
       points="545.23,479.8 535.5,487.28"
       style="fill:none;stroke:#000000;stroke-width:0.5"
       id="polyline9655"
       transform="matrix(0.26458333,0,0,0.26458333,60.218461,-23.367036)" />
    <polyline
       points="535.5,487.28 507.27,437.55"
       style="fill:none;stroke:#000000;stroke-width:0.5"
       id="polyline9657"
       transform="matrix(0.26458333,0,0,0.26458333,60.218461,-23.367036)" />
    <polyline
       points="507.27,437.55 507.7,437 508.13,436.45 508.55,435.89 508.97,435.33 509.39,434.77 509.8,434.21 510.22,433.64 510.63,433.07 511.03,432.51 511.44,431.93 511.84,431.36 512.24,430.78 512.63,430.21 513.02,429.63 513.41,429.04 513.8,428.46 514.19,427.87 514.57,427.29 514.94,426.69 515.32,426.1 515.69,425.51 516.06,424.91 516.43,424.31 516.79,423.71 517.15,423.11 517.51,422.51 517.86,421.9 518.22,421.29 518.57,420.68 518.91,420.07 519.25,419.45 519.59,418.84 519.93,418.22 520.26,417.6 520.59,416.98 520.92,416.36 521.25,415.73 521.57,415.1 521.89,414.47 522.2,413.84 522.51,413.21 522.82,412.57 523.13,411.94 523.43,411.3 523.73,410.66 524.02,410.02 524.32,409.37 524.61,408.73 524.89,408.08 525.18,407.43 525.46,406.78 525.73,406.13 526.01,405.48 526.28,404.82 526.55,404.16 526.81,403.5 527.07,402.84 527.33,402.18 527.58,401.52 527.83,400.85 528.08,400.19 528.32,399.52 528.56,398.85 528.8,398.17 529.04,397.5 529.27,396.83 529.49,396.15 529.72,395.47 529.94,394.79 530.16,394.11 530.37,393.43 530.58,392.74 530.79,392.06 530.99,391.37 531.19,390.68 531.39,389.99 531.58,389.3 531.77,388.6 531.95,387.91 532.14,387.21 532.32,386.52 532.49,385.82 532.66,385.12 532.83,384.41 533,383.71 533.16,383.01 533.31,382.3 533.47,381.59 533.62,380.89 533.77,380.18 533.91,379.46 534.05,378.75 534.18,378.04 534.32,377.32 534.44,376.61 534.57,375.89 534.69,375.17 534.81,374.45 534.92,373.73 535.03,373 535.14,372.28 535.24,371.56 535.34,370.83 535.43,370.1 535.53,369.37 535.61,368.64 535.7,367.91 535.78,367.18 535.85,366.45 535.93,365.71 535.99,364.98 536.06,364.24 536.12,363.5 536.18,362.76 536.23,362.02 536.28,361.28 536.32,360.54 536.37,359.8 536.4,359.05 536.44,358.31 536.47,357.56 536.49,356.81 536.51,356.07 536.53,355.32 536.55,354.57 536.56,353.82 536.56,353.06 536.56,352.31"
       style="fill:none;stroke:#000000;stroke-width:0.5"
       id="polyline9659"
       transform="matrix(0.26458333,0,0,0.26458333,60.218461,-23.367036)" />
    <polyline
       points="536.56,352.31 536.56,351.42 536.55,350.53 536.54,349.65 536.52,348.76 536.5,347.88 536.47,347 536.43,346.12 536.39,345.24 536.34,344.36 536.29,343.49 536.23,342.61 536.17,341.74 536.1,340.87 536.03,340 535.95,339.13 535.86,338.26 535.77,337.39 535.68,336.53 535.58,335.67 535.47,334.81 535.36,333.95 535.24,333.09 535.12,332.24 535,331.38 534.86,330.53 534.73,329.68 534.59,328.83 534.44,327.98 534.29,327.14 534.13,326.29 533.97,325.45 533.8,324.61 533.63,323.77 533.45,322.94 533.27,322.1 533.08,321.27 532.89,320.44 532.69,319.61 532.49,318.79 532.28,317.96 532.07,317.14 531.85,316.32 531.63,315.5 531.4,314.68 531.17,313.87 530.93,313.05 530.69,312.24 530.44,311.43 530.19,310.63 529.94,309.82 529.68,309.02 529.41,308.22 529.14,307.42 528.87,306.63 528.59,305.83 528.3,305.04 528.01,304.25 527.72,303.47 527.42,302.68 527.12,301.9 526.81,301.12 526.5,300.34 526.18,299.57 525.86,298.8 525.54,298.02 525.21,297.26 524.87,296.49 524.53,295.73 524.19,294.97 523.84,294.21 523.49,293.45 523.13,292.7 522.77,291.95 522.41,291.2 522.04,290.45 521.66,289.71 521.29,288.97 520.9,288.23 520.52,287.5 520.12,286.76 519.73,286.03 519.33,285.3 518.93,284.58 518.52,283.86 518.11,283.14 517.69,282.42 517.27,281.71 516.84,280.99 516.41,280.29 515.98,279.58 515.54,278.88 515.1,278.18 514.66,277.48 514.21,276.78 513.75,276.09 513.3,275.4 512.84,274.72 512.37,274.03 511.9,273.35 511.43,272.68 510.95,272 510.47,271.33 509.99,270.66 509.5,270 509,269.33 508.51,268.68 508.01,268.02 507.5,267.37 506.99,266.72 506.48,266.07 505.97,265.43 505.45,264.78 504.93,264.15 504.4,263.51 503.87,262.88 503.33,262.25 502.8,261.63 502.26,261.01 501.71,260.39 501.16,259.77 500.61,259.16 500.05,258.55 499.49,257.95 498.93,257.35 498.37,256.75 497.8,256.15 497.22,255.56 496.65,254.98 496.07,254.39 495.48,253.81 494.89,253.23 494.3,252.66 493.71,252.09 493.11,251.52 492.51,250.96 491.91,250.4 491.3,249.84 490.69,249.29 490.08,248.74 489.46,248.19 488.84,247.65 488.21,247.11 487.59,246.57 486.96,246.04 486.32,245.52 485.69,244.99 485.05,244.47 484.4,243.95 483.76,243.44 483.11,242.93 482.46,242.43 481.8,241.93 481.14,241.43 480.48,240.94 479.82,240.45 479.15,239.96 478.48,239.48 477.8,239 477.13,238.53 476.45,238.05 475.77,237.59 475.08,237.13 474.39,236.67 473.7,236.21 473.01,235.76 472.31,235.32 471.61,234.87 470.91,234.44 470.2,234 469.49,233.57 468.78,233.15 468.07,232.72 467.35,232.31 466.63,231.89 465.91,231.48 465.19,231.08 464.46,230.68 463.73,230.28 463,229.89 462.26,229.5 461.53,229.12 460.79,228.74 460.04,228.36 459.3,227.99 458.55,227.63 457.8,227.26 457.05,226.91 456.29,226.55 455.53,226.2 454.77,225.86 454.01,225.52 453.25,225.18 452.48,224.85 451.71,224.53 450.94,224.2 450.16,223.89 449.39,223.57 448.61,223.26 447.82,222.96 447.04,222.66 446.25,222.37 445.47,222.08 444.68,221.79 443.88,221.51 443.09,221.23 442.29,220.96 441.49,220.7 440.69,220.44 439.89,220.18 439.08,219.93 438.27,219.68 437.46,219.44 436.65,219.2 435.83,218.96 435.02,218.74 434.2,218.51 433.38,218.29 432.56,218.08 431.73,217.87 430.91,217.67 430.08,217.47 429.25,217.28 428.42,217.09 427.58,216.9 426.75,216.72 425.91,216.55 425.07,216.38 424.23,216.22 423.39,216.06 422.54,215.9 421.69,215.76 420.85,215.61 420,215.47 419.14,215.34 418.29,215.21 417.44,215.09 416.58,214.97 415.72,214.86 414.86,214.75 414,214.65 413.13,214.56 412.27,214.46 411.4,214.38 410.53,214.3 409.66,214.22 408.79,214.15 407.92,214.09 407.05,214.03 406.17,213.98 405.29,213.93 404.41,213.89 403.53,213.85 402.65,213.82 401.77,213.79 400.89,213.77 400,213.75"
       style="fill:none;stroke:#000000;stroke-width:0.5"
       id="polyline9661"
       transform="matrix(0.26458333,0,0,0.26458333,60.218461,-23.367036)" />
    <polyline
       points="400,213.75 399.11,213.77 398.23,213.79 397.35,213.82 396.47,213.85 395.59,213.89 394.71,213.93 393.83,213.98 392.95,214.03 392.08,214.09 391.21,214.15 390.34,214.22 389.47,214.3 388.6,214.38 387.73,214.46 386.87,214.56 386,214.65 385.14,214.75 384.28,214.86 383.42,214.97 382.56,215.09 381.71,215.21 380.86,215.34 380,215.47 379.15,215.61 378.31,215.76 377.46,215.9 376.61,216.06 375.77,216.22 374.93,216.38 374.09,216.55 373.25,216.72 372.42,216.9 371.58,217.09 370.75,217.28 369.92,217.47 369.09,217.67 368.27,217.87 367.44,218.08 366.62,218.29 365.8,218.51 364.98,218.74 364.17,218.96 363.35,219.2 362.54,219.44 361.73,219.68 360.92,219.93 360.11,220.18 359.31,220.44 358.51,220.7 357.71,220.96 356.91,221.23 356.12,221.51 355.32,221.79 354.53,222.08 353.75,222.37 352.96,222.66 352.18,222.96 351.39,223.26 350.61,223.57 349.84,223.89 349.06,224.2 348.29,224.53 347.52,224.85 346.75,225.18 345.99,225.52 345.23,225.86 344.47,226.2 343.71,226.55 342.95,226.91 342.2,227.26 341.45,227.63 340.7,227.99 339.96,228.36 339.21,228.74 338.47,229.12 337.74,229.5 337,229.89 336.27,230.28 335.54,230.68 334.81,231.08 334.09,231.48 333.37,231.89 332.65,232.31 331.93,232.72 331.22,233.15 330.51,233.57 329.8,234 329.09,234.44 328.39,234.87 327.69,235.32 326.99,235.76 326.3,236.21 325.61,236.67 324.92,237.13 324.23,237.59 323.55,238.05 322.87,238.53 322.2,239 321.52,239.48 320.85,239.96 320.18,240.45 319.52,240.94 318.86,241.43 318.2,241.93 317.54,242.43 316.89,242.93 316.24,243.44 315.6,243.95 314.95,244.47 314.31,244.99 313.68,245.52 313.04,246.04 312.41,246.57 311.79,247.11 311.16,247.65 310.54,248.19 309.92,248.74 309.31,249.29 308.7,249.84 308.09,250.4 307.49,250.96 306.89,251.52 306.29,252.09 305.7,252.66 305.11,253.23 304.52,253.81 303.93,254.39 303.35,254.98 302.78,255.56 302.2,256.15 301.63,256.75 301.07,257.35 300.51,257.95 299.95,258.55 299.39,259.16 298.84,259.77 298.29,260.39 297.74,261.01 297.2,261.63 296.67,262.25 296.13,262.88 295.6,263.51 295.07,264.15 294.55,264.78 294.03,265.43 293.52,266.07 293.01,266.72 292.5,267.37 291.99,268.02 291.49,268.68 291,269.33 290.5,270 290.01,270.66 289.53,271.33 289.05,272 288.57,272.68 288.1,273.35 287.63,274.03 287.16,274.72 286.7,275.4 286.25,276.09 285.79,276.78 285.34,277.48 284.9,278.18 284.46,278.88 284.02,279.58 283.59,280.29 283.16,280.99 282.73,281.71 282.31,282.42 281.89,283.14 281.48,283.86 281.07,284.58 280.67,285.3 280.27,286.03 279.88,286.76 279.48,287.5 279.1,288.23 278.71,288.97 278.34,289.71 277.96,290.45 277.59,291.2 277.23,291.95 276.87,292.7 276.51,293.45 276.16,294.21 275.81,294.97 275.47,295.73 275.13,296.49 274.79,297.26 274.46,298.02 274.14,298.8 273.82,299.57 273.5,300.34 273.19,301.12 272.88,301.9 272.58,302.68 272.28,303.47 271.99,304.25 271.7,305.04 271.41,305.83 271.13,306.63 270.86,307.42 270.59,308.22 270.32,309.02 270.06,309.82 269.81,310.63 269.56,311.43 269.31,312.24 269.07,313.05 268.83,313.87 268.6,314.68 268.37,315.5 268.15,316.32 267.93,317.14 267.72,317.96 267.51,318.79 267.31,319.61 267.11,320.44 266.92,321.27 266.73,322.1 266.55,322.94 266.37,323.77 266.2,324.61 266.03,325.45 265.87,326.29 265.71,327.14 265.56,327.98 265.41,328.83 265.27,329.68 265.14,330.53 265,331.38 264.88,332.24 264.76,333.09 264.64,333.95 264.53,334.81 264.42,335.67 264.32,336.53 264.23,337.39 264.14,338.26 264.05,339.13 263.97,340 263.9,340.87 263.83,341.74 263.77,342.61 263.71,343.49 263.66,344.36 263.61,345.24 263.57,346.12 263.53,347 263.5,347.88 263.48,348.76 263.46,349.65 263.45,350.53 263.44,351.42 263.44,352.31"
       style="fill:none;stroke:#000000;stroke-width:0.5"
       id="polyline9663"
       transform="matrix(0.26458333,0,0,0.26458333,60.218461,-23.367036)" />
    <polyline
       points="400,283.05 400.44,283.07 400.87,283.08 401.3,283.1 401.74,283.13 402.17,283.15 402.6,283.18 403.03,283.21 403.46,283.24 403.89,283.28 404.32,283.31 404.75,283.35 405.18,283.4 405.61,283.44 406.03,283.49 406.46,283.54 406.88,283.6 407.31,283.65 407.73,283.71 408.15,283.77 408.58,283.84 409,283.9 409.42,283.97 409.84,284.04 410.25,284.12 410.67,284.2 411.09,284.27 411.5,284.36 411.92,284.44 412.33,284.53 412.74,284.62 413.16,284.71 413.57,284.8 413.98,284.9 414.39,285 414.8,285.1 415.2,285.2 415.61,285.31 416.02,285.42 416.42,285.53 416.82,285.64 417.23,285.76 417.63,285.88 418.03,286 418.43,286.12 418.83,286.25 419.23,286.37 419.62,286.5 420.02,286.64 420.41,286.77 420.81,286.91 421.2,287.05 421.59,287.19 421.98,287.33 422.37,287.48 422.76,287.63 423.15,287.78 423.53,287.93 423.92,288.08 424.3,288.24 424.68,288.4 425.06,288.56 425.44,288.73 425.82,288.89 426.2,289.06 426.58,289.23 426.95,289.41 427.33,289.58 427.7,289.76 428.07,289.94 428.44,290.12 428.81,290.3 429.18,290.49 429.55,290.68 429.92,290.87 430.28,291.06 430.64,291.25 431,291.45 431.37,291.65 431.73,291.85 432.08,292.05 432.44,292.26 432.8,292.46 433.15,292.67 433.5,292.88 433.85,293.09 434.2,293.31 434.55,293.53 434.9,293.75 435.25,293.97 435.59,294.19 435.93,294.41 436.28,294.64 436.62,294.87 436.96,295.1 437.29,295.33 437.63,295.57 437.97,295.8 438.3,296.04 438.63,296.28 438.96,296.52 439.29,296.77 439.62,297.01 439.94,297.26 440.27,297.51 440.59,297.76 440.91,298.02 441.23,298.27 441.55,298.53 441.87,298.79 442.18,299.05 442.5,299.31 442.81,299.58 443.12,299.84 443.43,300.11 443.74,300.38 444.04,300.65 444.35,300.93 444.65,301.2 444.95,301.48 445.25,301.76 445.55,302.04 445.84,302.32 446.14,302.6 446.43,302.89 446.72,303.17 447.01,303.46 447.3,303.75 447.59,304.05 447.87,304.34 448.15,304.63 448.43,304.93 448.71,305.23 448.99,305.53 449.27,305.83 449.54,306.14 449.81,306.44 450.08,306.75 450.35,307.06 450.62,307.37 450.88,307.68 451.15,307.99 451.41,308.31 451.67,308.62 451.93,308.94 452.18,309.26 452.44,309.58 452.69,309.9 452.94,310.23 453.19,310.55 453.43,310.88 453.68,311.21 453.92,311.54 454.16,311.87 454.4,312.2 454.64,312.54 454.88,312.87 455.11,313.21 455.34,313.55 455.57,313.89 455.8,314.23 456.02,314.57 456.25,314.92 456.47,315.26 456.69,315.61 456.91,315.96 457.12,316.31 457.33,316.66 457.55,317.01 457.76,317.36 457.96,317.72 458.17,318.07 458.37,318.43 458.57,318.79 458.77,319.15 458.97,319.51 459.17,319.87 459.36,320.24 459.55,320.6 459.74,320.97 459.92,321.34 460.11,321.71 460.29,322.08 460.47,322.45 460.65,322.82 460.83,323.2 461,323.57 461.17,323.95 461.34,324.33 461.51,324.7 461.67,325.08 461.84,325.46 462,325.85 462.15,326.23 462.31,326.61 462.46,327 462.62,327.39 462.77,327.77 462.91,328.16 463.06,328.55 463.2,328.94 463.34,329.34 463.48,329.73 463.61,330.12 463.75,330.52 463.88,330.91 464.01,331.31 464.13,331.71 464.26,332.11 464.38,332.51 464.5,332.91 464.61,333.31 464.73,333.72 464.84,334.12 464.95,334.53 465.06,334.93 465.16,335.34 465.27,335.75 465.37,336.16 465.46,336.57 465.56,336.98 465.65,337.39 465.74,337.8 465.83,338.22 465.91,338.63 466,339.05 466.08,339.46 466.15,339.88 466.23,340.3 466.3,340.72 466.37,341.14 466.44,341.56 466.5,341.98 466.57,342.4 466.63,342.82 466.68,343.25 466.74,343.67 466.79,344.1 466.84,344.52 466.89,344.95 466.93,345.38 466.97,345.8 467.01,346.23 467.05,346.66 467.08,347.09 467.11,347.52 467.14,347.96 467.17,348.39 467.19,348.82 467.21,349.26 467.23,349.69 467.24,350.12 467.26,350.56 467.27,351 467.27,351.43 467.28,351.87 467.28,352.31"
       style="fill:none;stroke:#000000;stroke-width:0.5"
       id="polyline9665"
       transform="matrix(0.26458333,0,0,0.26458333,60.218461,-23.367036)" />
    <polyline
       points="467.28,352.31 467.28,352.64 467.28,352.98 467.27,353.31 467.27,353.64 467.26,353.97 467.25,354.3 467.24,354.64 467.23,354.97 467.22,355.3 467.2,355.63 467.18,355.96 467.17,356.28 467.15,356.61 467.12,356.94 467.1,357.27 467.08,357.6 467.05,357.92 467.02,358.25 467,358.58 466.97,358.9 466.93,359.23 466.9,359.55 466.87,359.88 466.83,360.2 466.79,360.53 466.75,360.85 466.71,361.17 466.67,361.49 466.62,361.82 466.58,362.14 466.53,362.46 466.48,362.78 466.43,363.1 466.38,363.42 466.33,363.74 466.28,364.06 466.22,364.37 466.16,364.69 466.1,365.01 466.04,365.33 465.98,365.64 465.92,365.96 465.86,366.27 465.79,366.59 465.72,366.9 465.65,367.21 465.58,367.53 465.51,367.84 465.44,368.15 465.37,368.46 465.29,368.77 465.21,369.08 465.13,369.39 465.05,369.7 464.97,370.01 464.89,370.32 464.81,370.63 464.72,370.94 464.63,371.24 464.55,371.55 464.46,371.85 464.36,372.16 464.27,372.46 464.18,372.77 464.08,373.07 463.99,373.37 463.89,373.67 463.79,373.98 463.69,374.28 463.59,374.58 463.48,374.88 463.38,375.17 463.27,375.47 463.17,375.77 463.06,376.07 462.95,376.36 462.84,376.66 462.72,376.95 462.61,377.25 462.5,377.54 462.38,377.84 462.26,378.13 462.14,378.42 462.02,378.71 461.9,379 461.78,379.29 461.65,379.58 461.53,379.87 461.4,380.16 461.27,380.45 461.14,380.73 461.01,381.02 460.88,381.3 460.75,381.59 460.62,381.87 460.48,382.16 460.34,382.44 460.21,382.72 460.07,383 459.93,383.28 459.78,383.56 459.64,383.84 459.5,384.12 459.35,384.4 459.2,384.67 459.06,384.95 458.91,385.22 458.76,385.5 458.61,385.77 458.45,386.05 458.3,386.32 458.15,386.59 457.99,386.86 457.83,387.13 457.67,387.4 457.51,387.67 457.35,387.94 457.19,388.2 457.03,388.47 456.86,388.73 456.7,389 456.53,389.26 456.36,389.53 456.19,389.79 456.02,390.05 455.85,390.31 455.68,390.57 455.51,390.83 455.33,391.09 455.16,391.34 454.98,391.6 454.8,391.86 454.62,392.11 454.44,392.36 454.26,392.62 454.08,392.87 453.89,393.12 453.71,393.37 453.52,393.62 453.34,393.87 453.15,394.12 452.96,394.37 452.77,394.61 452.58,394.86 452.39,395.1 452.19,395.35 452,395.59 451.8,395.83 451.61,396.07 451.41,396.31 451.21,396.55 451.01,396.79 450.81,397.03 450.61,397.26 450.41,397.5 450.2,397.74 450,397.97 449.79,398.2 449.59,398.43 449.38,398.67 449.17,398.9 448.96,399.12 448.75,399.35 448.54,399.58 448.32,399.81 448.11,400.03 447.89,400.26 447.68,400.48 447.46,400.7 447.24,400.92 447.02,401.15 446.8,401.36 446.58,401.58 446.36,401.8 446.14,402.02 445.92,402.23 445.69,402.45 445.47,402.66 445.24,402.88 445.01,403.09 444.78,403.3 444.55,403.51 444.32,403.72 444.09,403.92 443.86,404.13 443.63,404.34 443.39,404.54 443.16,404.75 442.92,404.95 442.69,405.15 442.45,405.35 442.21,405.55 441.97,405.75 441.73,405.95 441.49,406.14 441.25,406.34 441,406.53 440.76,406.72 440.52,406.92 440.27,407.11 440.02,407.3 439.78,407.49 439.53,407.67 439.28,407.86 439.03,408.05 438.78,408.23 438.53,408.41 438.27,408.6 438.02,408.78 437.77,408.96 437.51,409.14 437.26,409.32 437,409.49 436.74,409.67 436.48,409.84 436.22,410.02 435.96,410.19 435.7,410.36 435.44,410.53 435.18,410.7 434.92,410.87 434.65,411.03 434.39,411.2 434.12,411.36 433.86,411.52 433.59,411.69 433.32,411.85 433.05,412.01 432.78,412.17 432.51,412.32 432.24,412.48 431.97,412.63 431.7,412.79 431.43,412.94 431.15,413.09 430.88,413.24 430.6,413.39 430.33,413.54 430.05,413.68 429.77,413.83 429.49,413.97 429.21,414.12 428.93,414.26 428.65,414.4 428.37,414.54 428.09,414.67 427.81,414.81 427.53,414.95 427.24,415.08 426.96,415.21 426.67,415.35 426.39,415.48 426.1,415.6 425.81,415.73 425.52,415.86 425.23,415.98"
       style="fill:none;stroke:#000000;stroke-width:0.5"
       id="polyline9667"
       transform="matrix(0.26458333,0,0,0.26458333,60.218461,-23.367036)" />
    <polyline
       points="425.23,415.98 497.42,592.39"
       style="fill:none;stroke:#000000;stroke-width:0.5"
       id="polyline9669"
       transform="matrix(0.26458333,0,0,0.26458333,60.218461,-23.367036)" />
    <polyline
       points="497.42,592.39 497.91,592.18 498.41,591.98 498.9,591.77 499.39,591.57 499.89,591.36 500.38,591.15 500.87,590.94 501.36,590.73 501.85,590.52 502.34,590.31 502.83,590.09 503.32,589.88 503.8,589.66 504.29,589.44 504.78,589.23 505.26,589.01 505.75,588.79 506.23,588.57 507.2,588.12 508.16,587.68 509.12,587.22 510.08,586.77 511.04,586.31 512,585.84 512.95,585.38 513.9,584.9 514.85,584.43 515.79,583.95 516.73,583.46 517.67,582.98 518.61,582.49 519.55,581.99 520.48,581.49 521.41,580.99 522.34,580.48 523.26,579.97 524.19,579.46 525.11,578.94 526.03,578.42 526.95,577.89 527.86,577.36 528.77,576.83 529.68,576.29 530.59,575.75 531.5,575.2 532.4,574.65 533.3,574.1 534.2,573.54 535.1,572.98 535.99,572.42 536.88,571.85 537.77,571.28 538.66,570.71 539.55,570.13 540.43,569.54 541.31,568.96 542.19,568.37 543.07,567.77 543.94,567.18 544.81,566.58 545.68,565.97 546.55,565.36 547.42,564.75 548.28,564.14 549.14,563.52 550,562.89 550.86,562.27 551.72,561.64 552.57,561.01 553.42,560.37 554.27,559.73 555.12,559.08 555.96,558.44"
       style="fill:none;stroke:#000000;stroke-width:0.5"
       id="polyline9671"
       transform="matrix(0.26458333,0,0,0.26458333,60.218461,-23.367036)" />
    <polyline
       points="555.96,558.44 642.23,593.08"
       style="fill:none;stroke:#000000;stroke-width:0.5"
       id="polyline9673"
       transform="matrix(0.26458333,0,0,0.26458333,60.218461,-23.367036)" />
    <polyline
       points="642.23,593.08 642.31,593.11 642.39,593.14 642.47,593.17 642.55,593.2 642.72,593.26 642.89,593.32 643.06,593.38 643.23,593.43 643.41,593.48 643.58,593.53 643.76,593.58 643.94,593.63 644.12,593.67 644.3,593.71 644.48,593.75 644.67,593.79 644.85,593.82 645.04,593.86 645.23,593.89 645.42,593.92 645.6,593.95 645.79,593.97 645.99,593.99 646.18,594.02 646.37,594.04 646.56,594.05 646.75,594.07 646.95,594.08 647.14,594.09 647.34,594.1 647.53,594.11 647.73,594.11 647.92,594.12 648.11,594.12"
       style="fill:none;stroke:#000000;stroke-width:0.5"
       id="polyline9675"
       transform="matrix(0.26458333,0,0,0.26458333,60.218461,-23.367036)" />
    <polyline
       points="648.11,594.12 648.26,594.12 648.41,594.12 648.55,594.11 648.7,594.11 648.84,594.1 648.99,594.1 649.13,594.09 649.28,594.08 649.42,594.07 649.57,594.06 649.71,594.05 649.86,594.04 650,594.02 650.15,594.01 650.29,593.99 650.43,593.97 650.58,593.95 650.72,593.93 650.86,593.91 651,593.89 651.15,593.87 651.29,593.84 651.43,593.82 651.57,593.79 651.71,593.77 651.85,593.74 651.99,593.71 652.13,593.68 652.27,593.65 652.41,593.61 652.55,593.58 652.69,593.54 652.83,593.51 652.97,593.47 653.1,593.43 653.24,593.39 653.38,593.35 653.51,593.31 653.65,593.27 653.79,593.23 653.92,593.18 654.06,593.14 654.19,593.09 654.32,593.04 654.46,592.99 654.59,592.94 654.72,592.89 654.86,592.84 654.99,592.79 655.12,592.73 655.25,592.68 655.38,592.62 655.51,592.56 655.64,592.5 655.77,592.45 655.9,592.39 656.03,592.32 656.15,592.26 656.28,592.2 656.41,592.13 656.53,592.07 656.66,592 656.78,591.93 656.91,591.87 657.03,591.8 657.15,591.73 657.27,591.65 657.4,591.58 657.52,591.51 657.64,591.43 657.76,591.36 657.88,591.28 658,591.2 658.11,591.13 658.23,591.05 658.35,590.97 658.46,590.88 658.58,590.8 658.69,590.72 658.81,590.63 658.92,590.55 659.03,590.46 659.15,590.37 659.26,590.29 659.37,590.2 659.48,590.11 659.59,590.01 659.7,589.92 659.8,589.83 659.91,589.73 660.02,589.64 660.12,589.54 660.23,589.45 660.33,589.35 660.44,589.25 660.54,589.15 660.64,589.05 660.74,588.95 660.84,588.84 660.94,588.74 661.04,588.63 661.13,588.53 661.23,588.42 661.33,588.31 661.42,588.21 661.52,588.1 661.61,587.99 661.7,587.87 661.79,587.76 661.88,587.65 661.97,587.54 662.06,587.42 662.15,587.3 662.24,587.19 662.32,587.07 662.41,586.95 662.49,586.83 662.58,586.71 662.66,586.59 662.74,586.47 662.82,586.34 662.9,586.22 662.98,586.1 663.06,585.97 663.13,585.84 663.21,585.71 663.28,585.59 663.36,585.46"
       style="fill:none;stroke:#000000;stroke-width:0.5"
       id="polyline9677"
       transform="matrix(0.26458333,0,0,0.26458333,60.218461,-23.367036)" />
    <polyline
       points="663.36,585.46 732.64,465.59"
       style="fill:none;stroke:#000000;stroke-width:0.5"
       id="polyline9679"
       transform="matrix(0.26458333,0,0,0.26458333,60.218461,-23.367036)" />
    <polyline
       points="732.64,465.59 732.74,465.41 732.83,465.23 732.93,465.05 733.02,464.87 733.1,464.69 733.19,464.51 733.27,464.33 733.35,464.14 733.43,463.96 733.51,463.78 733.59,463.59 733.66,463.41 733.73,463.22 733.8,463.04 733.86,462.85 733.93,462.67 733.99,462.48 734.05,462.29 734.11,462.1 734.16,461.92 734.22,461.73 734.27,461.54 734.32,461.35 734.37,461.16 734.41,460.97 734.46,460.78 734.5,460.59 734.54,460.4 734.57,460.21 734.61,460.02 734.64,459.83 734.67,459.64 734.7,459.45 734.73,459.26 734.75,459.07 734.78,458.88 734.8,458.69 734.82,458.5 734.83,458.31 734.85,458.12 734.86,457.93 734.87,457.74 734.88,457.55 734.88,457.36 734.89,457.17 734.89,456.98 734.89,456.79 734.89,456.6 734.89,456.41 734.88,456.22 734.87,456.03 734.86,455.84 734.85,455.65 734.84,455.46 734.82,455.28 734.8,455.09 734.79,454.9 734.76,454.71 734.74,454.53 734.71,454.34 734.69,454.15 734.66,453.97 734.63,453.78 734.59,453.6 734.56,453.41 734.52,453.23 734.48,453.05 734.44,452.86 734.39,452.68 734.35,452.5 734.3,452.32 734.25,452.14 734.2,451.96 734.15,451.78 734.09,451.6 734.04,451.42 733.98,451.24 733.92,451.06 733.85,450.89 733.79,450.71 733.72,450.54 733.66,450.36 733.58,450.19 733.51,450.01 733.44,449.84 733.36,449.67 733.28,449.5 733.2,449.33 733.12,449.16 733.04,448.99 732.95,448.83 732.87,448.66 732.78,448.5 732.69,448.33 732.59,448.17 732.5,448.01 732.4,447.84 732.3,447.68 732.2,447.52 732.1,447.37 731.99,447.21 731.89,447.05 731.78,446.9 731.67,446.74 731.56,446.59 731.44,446.44 731.33,446.29 731.21,446.14 731.09,445.99 730.97,445.84 730.85,445.7 730.73,445.55 730.6,445.41 730.47,445.27 730.34,445.13 730.21,444.99 730.07,444.85 729.94,444.71 729.8,444.58 729.66,444.44 729.52,444.31 729.38,444.18 729.24,444.05 729.09,443.92 728.94,443.79 728.79,443.67 728.64,443.54 728.49,443.42"
       style="fill:none;stroke:#000000;stroke-width:0.5"
       id="polyline9681"
       transform="matrix(0.26458333,0,0,0.26458333,60.218461,-23.367036)" />
    <polyline
       points="728.49,443.42 655.39,386.26"
       style="fill:none;stroke:#000000;stroke-width:0.5"
       id="polyline9683"
       transform="matrix(0.26458333,0,0,0.26458333,60.218461,-23.367036)" />
    <polyline
       points="655.39,386.26 655.45,385.74 655.52,385.22 655.58,384.7 655.65,384.18 655.71,383.66 655.77,383.13 655.83,382.61 655.89,382.09 655.95,381.56 656.01,381.04 656.07,380.52 656.13,379.99 656.19,379.47 656.24,378.94 656.3,378.41 656.35,377.89 656.41,377.36 656.46,376.83 656.51,376.3 656.57,375.78 656.62,375.25 656.67,374.72 656.72,374.19 656.77,373.66 656.81,373.13 656.86,372.6 656.91,372.07 656.95,371.54 657,371.01 657.04,370.48 657.08,369.95 657.12,369.42 657.16,368.88 657.2,368.35 657.24,367.82 657.28,367.29 657.31,366.75 657.35,366.22 657.38,365.69 657.41,365.15 657.44,364.62 657.47,364.09 657.5,363.55 657.53,363.02 657.56,362.48 657.58,361.95 657.61,361.41 657.63,360.88 657.65,360.34 657.67,359.81 657.69,359.27 657.71,358.74 657.73,358.2 657.74,357.67 657.76,357.13 657.77,356.6 657.78,356.06 657.79,355.53 657.8,354.99 657.8,354.45 657.81,353.92 657.81,353.38 657.81,352.85 657.81,352.31"
       style="fill:none;stroke:#000000;stroke-width:0.5"
       id="polyline9685"
       transform="matrix(0.26458333,0,0,0.26458333,60.218461,-23.367036)" />
    <polyline
       points="657.81,352.31 657.81,351.77 657.81,351.24 657.81,350.7 657.8,350.17 657.8,349.63 657.79,349.1 657.78,348.56 657.77,348.02 657.76,347.49 657.74,346.95 657.73,346.42 657.71,345.88 657.69,345.35 657.67,344.81 657.65,344.28 657.63,343.74 657.61,343.21 657.58,342.67 657.56,342.14 657.53,341.6 657.5,341.07 657.47,340.54 657.44,340 657.41,339.47 657.38,338.93 657.35,338.4 657.31,337.87 657.28,337.34 657.24,336.8 657.2,336.27 657.16,335.74 657.12,335.21 657.08,334.67 657.04,334.14 657,333.61 656.95,333.08 656.91,332.55 656.86,332.02 656.81,331.49 656.77,330.96 656.72,330.43 656.67,329.9 656.62,329.37 656.57,328.84 656.51,328.32 656.46,327.79 656.41,327.26 656.35,326.73 656.3,326.21 656.24,325.68 656.19,325.16 656.13,324.63 656.07,324.11 656.01,323.58 655.95,323.06 655.89,322.53 655.83,322.01 655.77,321.49 655.71,320.97 655.65,320.44 655.58,319.92 655.52,319.4 655.45,318.88 655.39,318.36"
       style="fill:none;stroke:#000000;stroke-width:0.5"
       id="polyline9687"
       transform="matrix(0.26458333,0,0,0.26458333,60.218461,-23.367036)" />
    <polyline
       points="655.39,318.36 728.49,261.2"
       style="fill:none;stroke:#000000;stroke-width:0.5"
       id="polyline9689"
       transform="matrix(0.26458333,0,0,0.26458333,60.218461,-23.367036)" />
    <polyline
       points="728.49,261.2 728.64,261.08 728.79,260.95 728.94,260.83 729.09,260.7 729.24,260.57 729.38,260.44 729.53,260.31 729.67,260.18 729.81,260.04 729.95,259.91 730.08,259.77 730.22,259.63 730.35,259.49 730.48,259.35 730.61,259.21 730.74,259.07 730.87,258.92 730.99,258.78 731.11,258.63 731.23,258.48 731.35,258.33 731.47,258.18 731.59,258.03 731.7,257.88 731.81,257.72 731.92,257.57 732.03,257.41 732.14,257.25 732.24,257.1 732.35,256.94 732.45,256.78 732.55,256.62 732.64,256.45 732.74,256.29 732.83,256.13 732.92,255.96 733.01,255.79 733.1,255.63 733.19,255.46 733.27,255.29 733.36,255.12 733.44,254.95 733.52,254.78 733.59,254.61 733.67,254.43 733.74,254.26 733.81,254.09 733.88,253.91 733.95,253.74 734.01,253.56 734.08,253.38 734.14,253.2 734.2,253.02 734.26,252.85 734.31,252.67 734.37,252.49 734.42,252.3 734.47,252.12 734.51,251.94 734.56,251.76 734.6,251.58 734.64,251.39 734.68,251.21 734.72,251.02 734.76,250.84 734.79,250.65 734.82,250.47 734.85,250.28 734.88,250.09 734.9,249.91 734.93,249.72 734.95,249.53 734.97,249.35 734.98,249.16 735,248.97 735.01,248.78 735.02,248.59 735.03,248.4 735.04,248.21 735.04,248.02 735.04,247.83 735.04,247.64 735.04,247.45 735.04,247.26 735.03,247.07 735.02,246.88 735.01,246.69 735,246.5 734.99,246.31 734.97,246.12 734.95,245.93 734.93,245.74 734.9,245.55 734.88,245.36 734.85,245.17 734.82,244.98 734.79,244.79 734.75,244.6 734.71,244.41 734.68,244.22 734.63,244.03 734.59,243.84 734.54,243.65 734.5,243.46 734.45,243.27 734.39,243.08 734.34,242.89 734.28,242.71 734.22,242.52 734.16,242.33 734.09,242.14 734.03,241.96 733.96,241.77 733.89,241.58 733.81,241.4 733.74,241.21 733.66,241.03 733.58,240.84 733.5,240.66 733.41,240.48 733.32,240.29 733.23,240.11 733.14,239.93 733.05,239.75 732.95,239.57 732.85,239.39 732.75,239.21 732.64,239.03"
       style="fill:none;stroke:#000000;stroke-width:0.5"
       id="polyline9691"
       transform="matrix(0.26458333,0,0,0.26458333,60.218461,-23.367036)" />
    <polyline
       points="732.64,239.03 663.36,119.16"
       style="fill:none;stroke:#000000;stroke-width:0.5"
       id="polyline9693"
       transform="matrix(0.26458333,0,0,0.26458333,60.218461,-23.367036)" />
    <polyline
       points="663.36,119.16 663.28,119.03 663.21,118.91 663.13,118.78 663.06,118.65 662.98,118.53 662.9,118.4 662.82,118.28 662.74,118.15 662.66,118.03 662.58,117.91 662.49,117.79 662.41,117.67 662.32,117.55 662.24,117.43 662.15,117.32 662.06,117.2 661.98,117.09 661.89,116.97 661.8,116.86 661.7,116.75 661.61,116.64 661.52,116.52 661.42,116.42 661.33,116.31 661.23,116.2 661.14,116.09 661.04,115.99 660.94,115.88 660.84,115.78 660.74,115.68 660.64,115.57 660.54,115.47 660.44,115.37 660.34,115.27 660.24,115.18 660.13,115.08 660.03,114.98 659.92,114.89 659.81,114.79 659.71,114.7 659.6,114.61 659.49,114.52 659.38,114.43 659.27,114.34 659.16,114.25 659.05,114.16 658.94,114.07 658.83,113.99 658.71,113.9 658.6,113.82 658.49,113.74 658.37,113.66 658.26,113.58 658.14,113.5 658.02,113.42 657.91,113.34 657.79,113.26 657.67,113.19 657.55,113.11 657.43,113.04 657.31,112.97 657.19,112.9 657.07,112.83 656.95,112.76 656.83,112.69 656.7,112.62 656.58,112.55 656.46,112.49 656.33,112.42 656.21,112.36 656.08,112.3 655.96,112.24 655.83,112.18 655.71,112.12 655.58,112.06 655.45,112 655.33,111.94 655.2,111.89 655.07,111.84 654.94,111.78 654.81,111.73 654.68,111.68 654.55,111.63 654.42,111.58 654.29,111.53 654.16,111.49 654.03,111.44 653.9,111.4 653.77,111.35 653.63,111.31 653.5,111.27 653.37,111.23 653.24,111.19 653.1,111.15 652.97,111.11 652.83,111.08 652.7,111.04 652.57,111.01 652.43,110.98 652.3,110.94 652.16,110.91 652.03,110.88 651.89,110.86 651.76,110.83 651.62,110.8 651.48,110.78 651.35,110.75 651.21,110.73 651.07,110.71 650.94,110.69 650.8,110.67 650.66,110.65 650.53,110.63 650.39,110.61 650.25,110.6 650.12,110.59 649.98,110.57 649.84,110.56 649.7,110.55 649.56,110.54 649.43,110.53 649.29,110.52 649.15,110.52 649.01,110.51 648.88,110.51 648.74,110.51 648.6,110.5 648.46,110.5"
       style="fill:none;stroke:#000000;stroke-width:0.5"
       id="polyline9695"
       transform="matrix(0.26458333,0,0,0.26458333,60.218461,-23.367036)" />
    <polyline
       points="648.46,110.5 648.27,110.5 648.07,110.51 647.88,110.51 647.68,110.52 647.49,110.53 647.29,110.54 647.1,110.55 646.9,110.57 646.71,110.59 646.51,110.61 646.32,110.63 646.12,110.65 645.93,110.68 645.73,110.7 645.54,110.73 645.34,110.76 645.15,110.8 644.95,110.83 644.76,110.87 644.56,110.91 644.37,110.95 644.17,110.99 643.98,111.04 643.78,111.09 643.59,111.14 643.39,111.19 643.2,111.24 643,111.3 642.81,111.36 642.62,111.42 642.42,111.48 642.23,111.54"
       style="fill:none;stroke:#000000;stroke-width:0.5"
       id="polyline9697"
       transform="matrix(0.26458333,0,0,0.26458333,60.218461,-23.367036)" />
    <polyline
       points="642.23,111.54 555.96,146.19"
       style="fill:none;stroke:#000000;stroke-width:0.5"
       id="polyline9699"
       transform="matrix(0.26458333,0,0,0.26458333,60.218461,-23.367036)" />
    <polyline
       points="555.96,146.19 555.12,145.55 554.27,144.92 553.42,144.3 552.57,143.67 551.72,143.05 550.86,142.43 550,141.82 549.14,141.2 548.28,140.59 547.42,139.98 546.55,139.38 545.68,138.78 544.81,138.18 543.94,137.58 543.07,136.99 542.19,136.4 541.31,135.81 540.43,135.23 539.55,134.65 538.66,134.07 537.77,133.49 536.88,132.92 535.99,132.36 535.1,131.79 534.2,131.23 533.3,130.67 532.4,130.12 531.5,129.56 530.59,129.02 529.68,128.47 528.77,127.93 527.86,127.39 526.95,126.86 526.03,126.33 525.11,125.8 524.19,125.28 523.26,124.76 522.34,124.24 521.41,123.73 520.48,123.22 519.55,122.72 518.61,122.22 517.67,121.72 516.73,121.23 515.79,120.74 514.85,120.25 513.9,119.77 513.42,119.53 512.95,119.29 512.47,119.06 512,118.82 511.52,118.59 511.04,118.35 510.56,118.12 510.08,117.89 509.6,117.66 509.12,117.43 508.64,117.2 508.16,116.97 507.68,116.74 507.2,116.52 506.72,116.29 506.23,116.07 505.75,115.85 505.26,115.63 504.78,115.41 504.29,115.19 503.8,114.97 503.32,114.75 502.83,114.54 502.34,114.32 501.85,114.11 501.36,113.9 500.87,113.68 500.38,113.47 499.89,113.26 499.39,113.06 498.9,112.85 498.41,112.64 497.91,112.44 497.42,112.24"
       style="fill:none;stroke:#000000;stroke-width:0.5"
       id="polyline9701"
       transform="matrix(0.26458333,0,0,0.26458333,60.218461,-23.367036)" />
    <polyline
       points="497.42,112.24 484.25,20.43"
       style="fill:none;stroke:#000000;stroke-width:0.5"
       id="polyline9703"
       transform="matrix(0.26458333,0,0,0.26458333,60.218461,-23.367036)" />
    <polyline
       points="484.25,20.43 484.23,20.24 484.2,20.04 484.17,19.85 484.14,19.66 484.1,19.47 484.07,19.28 484.03,19.09 483.99,18.9 483.94,18.71 483.9,18.52 483.85,18.34 483.8,18.15 483.75,17.97 483.7,17.78 483.64,17.6 483.58,17.42 483.52,17.24 483.46,17.06 483.4,16.88 483.33,16.7 483.26,16.53 483.19,16.35 483.12,16.18 483.04,16 482.97,15.83 482.89,15.66 482.81,15.49 482.73,15.32 482.64,15.15 482.56,14.98 482.47,14.82 482.38,14.65 482.29,14.49 482.2,14.32 482.1,14.16 482.01,14 481.91,13.84 481.81,13.69 481.7,13.53 481.6,13.37 481.5,13.22 481.39,13.07 481.28,12.91 481.17,12.76 481.06,12.61 480.94,12.47 480.83,12.32 480.71,12.17 480.59,12.03 480.47,11.89 480.35,11.75 480.23,11.61 480.1,11.47 479.97,11.33 479.85,11.2 479.72,11.06 479.58,10.93 479.45,10.8 479.32,10.67 479.18,10.54 479.04,10.41 478.91,10.29 478.77,10.16 478.62,10.04 478.48,9.92 478.34,9.8 478.19,9.68 478.05,9.56 477.9,9.45 477.75,9.34 477.6,9.22 477.44,9.11 477.29,9.01 477.14,8.9 476.98,8.79 476.82,8.69 476.66,8.59 476.51,8.49 476.34,8.39 476.18,8.29 476.02,8.2 475.85,8.11 475.69,8.01 475.52,7.92 475.35,7.84 475.19,7.75 475.02,7.67 474.84,7.58 474.67,7.5 474.5,7.42 474.33,7.35 474.15,7.27 473.97,7.2 473.8,7.12 473.62,7.05 473.44,6.99 473.26,6.92 473.08,6.86 472.9,6.79 472.71,6.73 472.53,6.68 472.34,6.62 472.16,6.57 471.97,6.51 471.79,6.46 471.6,6.41 471.41,6.37 471.22,6.32 471.03,6.28 470.84,6.24 470.65,6.2 470.45,6.17 470.26,6.13 470.06,6.1 469.87,6.07 469.67,6.04 469.48,6.02 469.28,5.99 469.08,5.97 468.89,5.95 468.69,5.94 468.49,5.92 468.29,5.91 468.09,5.9 467.89,5.89 467.68,5.89 467.48,5.88 467.28,5.88"
       style="fill:none;stroke:#000000;stroke-width:0.5"
       id="polyline9705"
       transform="matrix(0.26458333,0,0,0.26458333,60.218461,-23.367036)" />
    <polyline
       points="467.28,5.88 400,5.88"
       style="fill:none;stroke:#000000;stroke-width:0.5"
       id="polyline9707"
       transform="matrix(0.26458333,0,0,0.26458333,60.218461,-23.367036)" />
    <polyline
       points="400,5.88 332.72,5.88"
       style="fill:none;stroke:#000000;stroke-width:0.5"
       id="polyline9709"
       transform="matrix(0.26458333,0,0,0.26458333,60.218461,-23.367036)" />
    <polyline
       points="332.72,5.88 332.52,5.88 332.32,5.89 332.11,5.89 331.91,5.9 331.71,5.91 331.51,5.92 331.31,5.94 331.11,5.95 330.92,5.97 330.72,5.99 330.52,6.02 330.33,6.04 330.13,6.07 329.94,6.1 329.74,6.13 329.55,6.17 329.35,6.2 329.16,6.24 328.97,6.28 328.78,6.32 328.59,6.37 328.4,6.41 328.21,6.46 328.03,6.51 327.84,6.57 327.66,6.62 327.47,6.68 327.29,6.73 327.1,6.79 326.92,6.86 326.74,6.92 326.56,6.99 326.38,7.05 326.2,7.12 326.03,7.2 325.85,7.27 325.67,7.35 325.5,7.42 325.33,7.5 325.16,7.58 324.98,7.67 324.81,7.75 324.65,7.84 324.48,7.92 324.31,8.01 324.15,8.11 323.98,8.2 323.82,8.29 323.66,8.39 323.49,8.49 323.34,8.59 323.18,8.69 323.02,8.79 322.86,8.9 322.71,9.01 322.56,9.11 322.4,9.22 322.25,9.34 322.1,9.45 321.95,9.56 321.81,9.68 321.66,9.8 321.52,9.92 321.38,10.04 321.23,10.16 321.09,10.29 320.96,10.41 320.82,10.54 320.68,10.67 320.55,10.8 320.42,10.93 320.28,11.06 320.15,11.2 320.03,11.33 319.9,11.47 319.77,11.61 319.65,11.75 319.53,11.89 319.41,12.03 319.29,12.17 319.17,12.32 319.06,12.47 318.94,12.61 318.83,12.76 318.72,12.91 318.61,13.07 318.5,13.22 318.4,13.37 318.3,13.53 318.19,13.69 318.09,13.84 317.99,14 317.9,14.16 317.8,14.32 317.71,14.49 317.62,14.65 317.53,14.82 317.44,14.98 317.36,15.15 317.27,15.32 317.19,15.49 317.11,15.66 317.03,15.83 316.96,16 316.88,16.18 316.81,16.35 316.74,16.53 316.67,16.7 316.6,16.88 316.54,17.06 316.48,17.24 316.42,17.42 316.36,17.6 316.3,17.78 316.25,17.97 316.2,18.15 316.15,18.34 316.1,18.52 316.06,18.71 316.01,18.9 315.97,19.09 315.93,19.28 315.9,19.47 315.86,19.66 315.83,19.85 315.8,20.04 315.77,20.24 315.75,20.43"
       style="fill:none;stroke:#000000;stroke-width:0.5"
       id="polyline9711"
       transform="matrix(0.26458333,0,0,0.26458333,60.218461,-23.367036)" />
    <polyline
       points="315.75,20.43 302.58,112.24"
       style="fill:none;stroke:#000000;stroke-width:0.5"
       id="polyline9713"
       transform="matrix(0.26458333,0,0,0.26458333,60.218461,-23.367036)" />
    <polyline
       points="302.58,112.24 302.09,112.44 301.59,112.64 301.1,112.85 300.61,113.06 300.11,113.26 299.62,113.47 299.13,113.68 298.64,113.9 298.15,114.11 297.66,114.32 297.17,114.54 296.68,114.75 296.2,114.97 295.71,115.19 295.22,115.41 294.74,115.63 294.25,115.85 293.77,116.07 293.28,116.29 292.8,116.52 292.32,116.74 291.84,116.97 291.36,117.2 290.88,117.43 290.4,117.66 289.92,117.89 289.44,118.12 288.96,118.35 288.48,118.59 288,118.82 287.53,119.06 287.05,119.29 286.58,119.53 286.1,119.77 285.15,120.25 284.21,120.74 283.27,121.23 282.33,121.72 281.39,122.22 280.45,122.72 279.52,123.22 278.59,123.73 277.66,124.24 276.74,124.76 275.81,125.28 274.89,125.8 273.97,126.33 273.05,126.86 272.14,127.39 271.23,127.93 270.32,128.47 269.41,129.02 268.5,129.56 267.6,130.12 266.7,130.67 265.8,131.23 264.9,131.79 264.01,132.36 263.12,132.92 262.23,133.49 261.34,134.07 260.45,134.65 259.57,135.23 258.69,135.81 257.81,136.4 256.93,136.99 256.06,137.58 255.19,138.18 254.32,138.78 253.45,139.38 252.58,139.98 251.72,140.59 250.86,141.2 250,141.82 249.14,142.43 248.28,143.05 247.43,143.67 246.58,144.3 245.73,144.92 244.88,145.55 244.04,146.19"
       style="fill:none;stroke:#000000;stroke-width:0.5"
       id="polyline9715"
       transform="matrix(0.26458333,0,0,0.26458333,60.218461,-23.367036)" />
    <polyline
       points="244.04,146.19 157.77,111.54"
       style="fill:none;stroke:#000000;stroke-width:0.5"
       id="polyline9717"
       transform="matrix(0.26458333,0,0,0.26458333,60.218461,-23.367036)" />
    <polyline
       points="157.77,111.54 157.58,111.48 157.38,111.42 157.19,111.36 157,111.3 156.8,111.24 156.61,111.19 156.41,111.14 156.22,111.09 156.02,111.04 155.83,110.99 155.63,110.95 155.44,110.91 155.24,110.87 155.05,110.83 154.85,110.8 154.66,110.76 154.46,110.73 154.27,110.7 154.07,110.68 153.88,110.65 153.68,110.63 153.49,110.61 153.29,110.59 153.1,110.57 152.9,110.55 152.71,110.54 152.51,110.53 152.32,110.52 152.12,110.51 151.93,110.51 151.73,110.5 151.54,110.5"
       style="fill:none;stroke:#000000;stroke-width:0.5"
       id="polyline9719"
       transform="matrix(0.26458333,0,0,0.26458333,60.218461,-23.367036)" />
    <polyline
       points="151.54,110.5 151.4,110.5 151.26,110.51 151.12,110.51 150.99,110.51 150.85,110.52 150.71,110.52 150.57,110.53 150.44,110.54 150.3,110.55 150.16,110.56 150.02,110.57 149.88,110.59 149.75,110.6 149.61,110.61 149.47,110.63 149.34,110.65 149.2,110.67 149.06,110.69 148.93,110.71 148.79,110.73 148.65,110.75 148.52,110.78 148.38,110.8 148.24,110.83 148.11,110.86 147.97,110.88 147.84,110.91 147.7,110.94 147.57,110.98 147.43,111.01 147.3,111.04 147.17,111.08 147.03,111.11 146.9,111.15 146.76,111.19 146.63,111.23 146.5,111.27 146.37,111.31 146.23,111.35 146.1,111.4 145.97,111.44 145.84,111.49 145.71,111.53 145.58,111.58 145.45,111.63 145.32,111.68 145.19,111.73 145.06,111.78 144.93,111.84 144.8,111.89 144.67,111.94 144.55,112 144.42,112.06 144.29,112.12 144.17,112.18 144.04,112.24 143.92,112.3 143.79,112.36 143.67,112.42 143.54,112.49 143.42,112.55 143.3,112.62 143.17,112.69 143.05,112.76 142.93,112.83 142.81,112.9 142.69,112.97 142.57,113.04 142.45,113.11 142.33,113.19 142.21,113.26 142.09,113.34 141.98,113.42 141.86,113.5 141.74,113.58 141.63,113.66 141.51,113.74 141.4,113.82 141.29,113.9 141.17,113.99 141.06,114.07 140.95,114.16 140.84,114.25 140.73,114.34 140.62,114.43 140.51,114.52 140.4,114.61 140.29,114.7 140.19,114.79 140.08,114.89 139.97,114.98 139.87,115.08 139.76,115.18 139.66,115.27 139.56,115.37 139.46,115.47 139.36,115.57 139.26,115.68 139.16,115.78 139.06,115.88 138.96,115.99 138.86,116.09 138.77,116.2 138.67,116.31 138.58,116.42 138.48,116.52 138.39,116.64 138.3,116.75 138.2,116.86 138.11,116.97 138.02,117.09 137.94,117.2 137.85,117.32 137.76,117.43 137.68,117.55 137.59,117.67 137.51,117.79 137.42,117.91 137.34,118.03 137.26,118.15 137.18,118.28 137.1,118.4 137.02,118.53 136.94,118.65 136.87,118.78 136.79,118.91 136.72,119.03 136.64,119.16"
       style="fill:none;stroke:#000000;stroke-width:0.5"
       id="polyline9721"
       transform="matrix(0.26458333,0,0,0.26458333,60.218461,-23.367036)" />
    <polyline
       points="136.64,119.16 67.36,239.03"
       style="fill:none;stroke:#000000;stroke-width:0.5"
       id="polyline9723"
       transform="matrix(0.26458333,0,0,0.26458333,60.218461,-23.367036)" />
    <polyline
       points="67.36,239.03 67.25,239.21 67.15,239.39 67.05,239.57 66.95,239.75 66.86,239.93 66.77,240.11 66.68,240.29 66.59,240.48 66.5,240.66 66.42,240.84 66.34,241.03 66.26,241.21 66.19,241.4 66.11,241.58 66.04,241.77 65.97,241.96 65.91,242.14 65.84,242.33 65.78,242.52 65.72,242.71 65.66,242.89 65.61,243.08 65.55,243.27 65.5,243.46 65.46,243.65 65.41,243.84 65.37,244.03 65.32,244.22 65.29,244.41 65.25,244.6 65.21,244.79 65.18,244.98 65.15,245.17 65.12,245.36 65.1,245.55 65.07,245.74 65.05,245.93 65.03,246.12 65.01,246.31 65,246.5 64.99,246.69 64.98,246.88 64.97,247.07 64.96,247.26 64.96,247.45 64.96,247.64 64.96,247.83 64.96,248.02 64.96,248.21 64.97,248.4 64.98,248.59 64.99,248.78 65,248.97 65.02,249.16 65.03,249.35 65.05,249.53 65.07,249.72 65.1,249.91 65.12,250.09 65.15,250.28 65.18,250.47 65.21,250.65 65.24,250.84 65.28,251.02 65.32,251.21 65.36,251.39 65.4,251.58 65.44,251.76 65.49,251.94 65.53,252.12 65.58,252.3 65.63,252.49 65.69,252.67 65.74,252.85 65.8,253.02 65.86,253.2 65.92,253.38 65.99,253.56 66.05,253.74 66.12,253.91 66.19,254.09 66.26,254.26 66.33,254.43 66.41,254.61 66.48,254.78 66.56,254.95 66.64,255.12 66.73,255.29 66.81,255.46 66.9,255.63 66.99,255.79 67.08,255.96 67.17,256.13 67.26,256.29 67.36,256.45 67.45,256.62 67.55,256.78 67.65,256.94 67.76,257.1 67.86,257.25 67.97,257.41 68.08,257.57 68.19,257.72 68.3,257.88 68.41,258.03 68.53,258.18 68.65,258.33 68.77,258.48 68.89,258.63 69.01,258.78 69.13,258.92 69.26,259.07 69.39,259.21 69.52,259.35 69.65,259.49 69.78,259.63 69.92,259.77 70.05,259.91 70.19,260.04 70.33,260.18 70.47,260.31 70.62,260.44 70.76,260.57 70.91,260.7 71.06,260.83 71.21,260.95 71.36,261.08 71.51,261.2"
       style="fill:none;stroke:#000000;stroke-width:0.5"
       id="polyline9725"
       transform="matrix(0.26458333,0,0,0.26458333,60.218461,-23.367036)" />
    <polyline
       points="71.51,261.2 144.61,318.36"
       style="fill:none;stroke:#000000;stroke-width:0.5"
       id="polyline9727"
       transform="matrix(0.26458333,0,0,0.26458333,60.218461,-23.367036)" />
    <polyline
       points="144.61,318.36 144.55,318.88 144.48,319.4 144.42,319.92 144.35,320.44 144.29,320.97 144.23,321.49 144.17,322.01 144.11,322.53 144.05,323.06 143.99,323.58 143.93,324.11 143.87,324.63 143.81,325.16 143.76,325.68 143.7,326.21 143.65,326.73 143.59,327.26 143.54,327.79 143.49,328.32 143.43,328.84 143.38,329.37 143.33,329.9 143.28,330.43 143.23,330.96 143.19,331.49 143.14,332.02 143.09,332.55 143.05,333.08 143,333.61 142.96,334.14 142.92,334.67 142.88,335.21 142.84,335.74 142.8,336.27 142.76,336.8 142.72,337.34 142.69,337.87 142.65,338.4 142.62,338.93 142.59,339.47 142.56,340 142.53,340.54 142.5,341.07 142.47,341.6 142.44,342.14 142.42,342.67 142.39,343.21 142.37,343.74 142.35,344.28 142.33,344.81 142.31,345.35 142.29,345.88 142.27,346.42 142.26,346.95 142.24,347.49 142.23,348.02 142.22,348.56 142.21,349.1 142.2,349.63 142.2,350.17 142.19,350.7 142.19,351.24 142.19,351.77 142.19,352.31"
       style="fill:none;stroke:#000000;stroke-width:0.5"
       id="polyline9729"
       transform="matrix(0.26458333,0,0,0.26458333,60.218461,-23.367036)" />
    <polyline
       points="142.19,352.31 142.19,352.85 142.19,353.38 142.19,353.92 142.2,354.45 142.2,354.99 142.21,355.53 142.22,356.06 142.23,356.6 142.24,357.13 142.26,357.67 142.27,358.2 142.29,358.74 142.31,359.27 142.33,359.81 142.35,360.34 142.37,360.88 142.39,361.41 142.42,361.95 142.44,362.48 142.47,363.02 142.5,363.55 142.53,364.09 142.56,364.62 142.59,365.15 142.62,365.69 142.65,366.22 142.69,366.75 142.72,367.29 142.76,367.82 142.8,368.35 142.84,368.88 142.88,369.42 142.92,369.95 142.96,370.48 143,371.01 143.05,371.54 143.09,372.07 143.14,372.6 143.19,373.13 143.23,373.66 143.28,374.19 143.33,374.72 143.38,375.25 143.43,375.78 143.49,376.3 143.54,376.83 143.59,377.36 143.65,377.89 143.7,378.41 143.76,378.94 143.81,379.47 143.87,379.99 143.93,380.52 143.99,381.04 144.05,381.56 144.11,382.09 144.17,382.61 144.23,383.13 144.29,383.66 144.35,384.18 144.42,384.7 144.48,385.22 144.55,385.74 144.61,386.26"
       style="fill:none;stroke:#000000;stroke-width:0.5"
       id="polyline9731"
       transform="matrix(0.26458333,0,0,0.26458333,60.218461,-23.367036)" />
    <polyline
       points="144.61,386.26 71.51,443.42"
       style="fill:none;stroke:#000000;stroke-width:0.5"
       id="polyline9733"
       transform="matrix(0.26458333,0,0,0.26458333,60.218461,-23.367036)" />
    <polyline
       points="71.51,443.42 71.36,443.54 71.21,443.67 71.06,443.79 70.91,443.92 70.76,444.05 70.62,444.18 70.48,444.31 70.34,444.44 70.2,444.58 70.06,444.71 69.93,444.85 69.79,444.99 69.66,445.13 69.53,445.27 69.4,445.41 69.27,445.55 69.15,445.7 69.03,445.84 68.91,445.99 68.79,446.14 68.67,446.29 68.56,446.44 68.44,446.59 68.33,446.74 68.22,446.9 68.11,447.05 68.01,447.21 67.9,447.37 67.8,447.52 67.7,447.68 67.6,447.84 67.5,448.01 67.41,448.17 67.31,448.33 67.22,448.5 67.13,448.66 67.05,448.83 66.96,448.99 66.88,449.16 66.8,449.33 66.72,449.5 66.64,449.67 66.56,449.84 66.49,450.01 66.42,450.19 66.34,450.36 66.28,450.54 66.21,450.71 66.15,450.89 66.08,451.06 66.02,451.24 65.96,451.42 65.91,451.6 65.85,451.78 65.8,451.96 65.75,452.14 65.7,452.32 65.65,452.5 65.61,452.68 65.56,452.86 65.52,453.05 65.48,453.23 65.44,453.41 65.41,453.6 65.37,453.78 65.34,453.97 65.31,454.15 65.29,454.34 65.26,454.53 65.24,454.71 65.21,454.9 65.2,455.09 65.18,455.28 65.16,455.46 65.15,455.65 65.14,455.84 65.13,456.03 65.12,456.22 65.11,456.41 65.11,456.6 65.11,456.79 65.11,456.98 65.11,457.17 65.12,457.36 65.12,457.55 65.13,457.74 65.14,457.93 65.15,458.12 65.17,458.31 65.18,458.5 65.2,458.69 65.22,458.88 65.25,459.07 65.27,459.26 65.3,459.45 65.33,459.64 65.36,459.83 65.39,460.02 65.43,460.21 65.46,460.4 65.5,460.59 65.54,460.78 65.59,460.97 65.63,461.16 65.68,461.35 65.73,461.54 65.78,461.73 65.84,461.92 65.89,462.1 65.95,462.29 66.01,462.48 66.07,462.67 66.14,462.85 66.2,463.04 66.27,463.22 66.34,463.41 66.41,463.59 66.49,463.78 66.57,463.96 66.65,464.14 66.73,464.33 66.81,464.51 66.9,464.69 66.98,464.87 67.07,465.05 67.17,465.23 67.26,465.41 67.36,465.59"
       style="fill:none;stroke:#000000;stroke-width:0.5"
       id="polyline9735"
       transform="matrix(0.26458333,0,0,0.26458333,60.218461,-23.367036)" />
    <polyline
       points="67.36,465.59 136.64,585.46"
       style="fill:none;stroke:#000000;stroke-width:0.5"
       id="polyline9737"
       transform="matrix(0.26458333,0,0,0.26458333,60.218461,-23.367036)" />
    <polyline
       points="136.64,585.46 136.72,585.59 136.79,585.71 136.87,585.84 136.94,585.97 137.02,586.1 137.1,586.22 137.18,586.34 137.26,586.47 137.34,586.59 137.42,586.71 137.51,586.83 137.59,586.95 137.68,587.07 137.76,587.19 137.85,587.3 137.94,587.42 138.03,587.54 138.12,587.65 138.21,587.76 138.3,587.87 138.39,587.99 138.48,588.1 138.58,588.21 138.67,588.31 138.77,588.42 138.87,588.53 138.96,588.63 139.06,588.74 139.16,588.84 139.26,588.95 139.36,589.05 139.46,589.15 139.56,589.25 139.67,589.35 139.77,589.45 139.88,589.54 139.98,589.64 140.09,589.73 140.2,589.83 140.3,589.92 140.41,590.01 140.52,590.11 140.63,590.2 140.74,590.29 140.85,590.37 140.97,590.46 141.08,590.55 141.19,590.63 141.31,590.72 141.42,590.8 141.54,590.88 141.65,590.97 141.77,591.05 141.89,591.13 142,591.2 142.12,591.28 142.24,591.36 142.36,591.43 142.48,591.51 142.6,591.58 142.73,591.65 142.85,591.73 142.97,591.8 143.09,591.87 143.22,591.93 143.34,592 143.47,592.07 143.59,592.13 143.72,592.2 143.85,592.26 143.97,592.32 144.1,592.39 144.23,592.45 144.36,592.5 144.49,592.56 144.62,592.62 144.75,592.68 144.88,592.73 145.01,592.79 145.14,592.84 145.28,592.89 145.41,592.94 145.54,592.99 145.68,593.04 145.81,593.09 145.94,593.14 146.08,593.18 146.21,593.23 146.35,593.27 146.49,593.31 146.62,593.35 146.76,593.39 146.9,593.43 147.03,593.47 147.17,593.51 147.31,593.54 147.45,593.58 147.59,593.61 147.73,593.65 147.87,593.68 148.01,593.71 148.15,593.74 148.29,593.77 148.43,593.79 148.57,593.82 148.71,593.84 148.85,593.87 149,593.89 149.14,593.91 149.28,593.93 149.42,593.95 149.57,593.97 149.71,593.99 149.85,594.01 150,594.02 150.14,594.04 150.29,594.05 150.43,594.06 150.58,594.07 150.72,594.08 150.87,594.09 151.01,594.1 151.16,594.1 151.3,594.11 151.45,594.11 151.59,594.12 151.74,594.12 151.89,594.12"
       style="fill:none;stroke:#000000;stroke-width:0.5"
       id="polyline9739"
       transform="matrix(0.26458333,0,0,0.26458333,60.218461,-23.367036)" />
    <polyline
       points="151.89,594.12 152.08,594.12 152.27,594.11 152.47,594.11 152.66,594.1 152.86,594.09 153.05,594.08 153.25,594.07 153.44,594.05 153.63,594.04 153.82,594.02 154.01,593.99 154.21,593.97 154.4,593.95 154.58,593.92 154.77,593.89 154.96,593.86 155.15,593.82 155.33,593.79 155.52,593.75 155.7,593.71 155.88,593.67 156.06,593.63 156.24,593.58 156.42,593.53 156.59,593.48 156.77,593.43 156.94,593.38 157.11,593.32 157.28,593.26 157.45,593.2 157.53,593.17 157.61,593.14 157.69,593.11 157.77,593.08"
       style="fill:none;stroke:#000000;stroke-width:0.5"
       id="polyline9741"
       transform="matrix(0.26458333,0,0,0.26458333,60.218461,-23.367036)" />
    <polyline
       points="157.77,593.08 244.04,558.44"
       style="fill:none;stroke:#000000;stroke-width:0.5"
       id="polyline9743"
       transform="matrix(0.26458333,0,0,0.26458333,60.218461,-23.367036)" />
    <polyline
       points="244.04,558.44 244.88,559.08 245.73,559.73 246.58,560.37 247.43,561.01 248.28,561.64 249.14,562.27 250,562.89 250.86,563.52 251.72,564.14 252.58,564.75 253.45,565.36 254.32,565.97 255.19,566.58 256.06,567.18 256.93,567.77 257.81,568.37 258.69,568.96 259.57,569.54 260.45,570.13 261.34,570.71 262.23,571.28 263.12,571.85 264.01,572.42 264.9,572.98 265.8,573.54 266.7,574.1 267.6,574.65 268.5,575.2 269.41,575.75 270.32,576.29 271.23,576.83 272.14,577.36 273.05,577.89 273.97,578.42 274.89,578.94 275.81,579.46 276.74,579.97 277.66,580.48 278.59,580.99 279.52,581.49 280.45,581.99 281.39,582.49 282.33,582.98 283.27,583.46 284.21,583.95 285.15,584.43 286.1,584.9 287.05,585.38 288,585.84 288.96,586.31 289.92,586.77 290.88,587.22 291.84,587.68 292.8,588.12 293.77,588.57 294.25,588.79 294.74,589.01 295.22,589.23 295.71,589.44 296.2,589.66 296.68,589.88 297.17,590.09 297.66,590.31 298.15,590.52 298.64,590.73 299.13,590.94 299.62,591.15 300.11,591.36 300.61,591.57 301.1,591.77 301.59,591.98 302.09,592.18 302.58,592.39"
       style="fill:none;stroke:#000000;stroke-width:0.5"
       id="polyline9745"
       transform="matrix(0.26458333,0,0,0.26458333,60.218461,-23.367036)" />
    <polyline
       points="302.58,592.39 374.77,415.98"
       style="fill:none;stroke:#000000;stroke-width:0.5"
       id="polyline9747"
       transform="matrix(0.26458333,0,0,0.26458333,60.218461,-23.367036)" />
    <polyline
       points="374.77,415.98 374.48,415.86 374.19,415.73 373.9,415.6 373.61,415.48 373.33,415.35 373.04,415.21 372.76,415.08 372.47,414.95 372.19,414.81 371.91,414.67 371.63,414.54 371.35,414.4 371.07,414.26 370.79,414.12 370.51,413.97 370.23,413.83 369.95,413.68 369.67,413.54 369.4,413.39 369.12,413.24 368.85,413.09 368.57,412.94 368.3,412.79 368.03,412.63 367.76,412.48 367.49,412.32 367.22,412.17 366.95,412.01 366.68,411.85 366.41,411.69 366.14,411.52 365.88,411.36 365.61,411.2 365.35,411.03 365.08,410.87 364.82,410.7 364.56,410.53 364.3,410.36 364.04,410.19 363.78,410.02 363.52,409.84 363.26,409.67 363,409.49 362.74,409.32 362.49,409.14 362.23,408.96 361.98,408.78 361.73,408.6 361.47,408.41 361.22,408.23 360.97,408.05 360.72,407.86 360.47,407.67 360.22,407.49 359.98,407.3 359.73,407.11 359.48,406.92 359.24,406.72 359,406.53 358.75,406.34 358.51,406.14 358.27,405.95 358.03,405.75 357.79,405.55 357.55,405.35 357.31,405.15 357.08,404.95 356.84,404.75 356.61,404.54 356.37,404.34 356.14,404.13 355.91,403.92 355.68,403.72 355.45,403.51 355.22,403.3 354.99,403.09 354.76,402.88 354.53,402.66 354.31,402.45 354.08,402.23 353.86,402.02 353.64,401.8 353.42,401.58 353.2,401.36 352.98,401.15 352.76,400.92 352.54,400.7 352.32,400.48 352.11,400.26 351.89,400.03 351.68,399.81 351.46,399.58 351.25,399.35 351.04,399.12 350.83,398.9 350.62,398.67 350.41,398.43 350.21,398.2 350,397.97 349.8,397.74 349.59,397.5 349.39,397.26 349.19,397.03 348.99,396.79 348.79,396.55 348.59,396.31 348.39,396.07 348.2,395.83 348,395.59 347.81,395.35 347.61,395.1 347.42,394.86 347.23,394.61 347.04,394.37 346.85,394.12 346.66,393.87 346.48,393.62 346.29,393.37 346.11,393.12 345.92,392.87 345.74,392.62 345.56,392.36 345.38,392.11 345.2,391.86 345.02,391.6 344.84,391.34 344.67,391.09 344.49,390.83 344.32,390.57 344.15,390.31 343.98,390.05 343.81,389.79 343.64,389.53 343.47,389.26 343.3,389 343.14,388.73 342.97,388.47 342.81,388.2 342.65,387.94 342.49,387.67 342.33,387.4 342.17,387.13 342.01,386.86 341.85,386.59 341.7,386.32 341.55,386.05 341.39,385.77 341.24,385.5 341.09,385.22 340.94,384.95 340.8,384.67 340.65,384.4 340.5,384.12 340.36,383.84 340.22,383.56 340.07,383.28 339.93,383 339.79,382.72 339.66,382.44 339.52,382.16 339.38,381.87 339.25,381.59 339.12,381.3 338.99,381.02 338.86,380.73 338.73,380.45 338.6,380.16 338.47,379.87 338.35,379.58 338.22,379.29 338.1,379 337.98,378.71 337.86,378.42 337.74,378.13 337.62,377.84 337.5,377.54 337.39,377.25 337.28,376.95 337.16,376.66 337.05,376.36 336.94,376.07 336.83,375.77 336.73,375.47 336.62,375.17 336.52,374.88 336.41,374.58 336.31,374.28 336.21,373.98 336.11,373.67 336.01,373.37 335.92,373.07 335.82,372.77 335.73,372.46 335.64,372.16 335.54,371.85 335.45,371.55 335.37,371.24 335.28,370.94 335.19,370.63 335.11,370.32 335.03,370.01 334.95,369.7 334.87,369.39 334.79,369.08 334.71,368.77 334.63,368.46 334.56,368.15 334.49,367.84 334.42,367.53 334.35,367.21 334.28,366.9 334.21,366.59 334.14,366.27 334.08,365.96 334.02,365.64 333.96,365.33 333.9,365.01 333.84,364.69 333.78,364.37 333.72,364.06 333.67,363.74 333.62,363.42 333.57,363.1 333.52,362.78 333.47,362.46 333.42,362.14 333.38,361.82 333.33,361.49 333.29,361.17 333.25,360.85 333.21,360.53 333.17,360.2 333.13,359.88 333.1,359.55 333.07,359.23 333.03,358.9 333,358.58 332.98,358.25 332.95,357.92 332.92,357.6 332.9,357.27 332.88,356.94 332.85,356.61 332.83,356.28 332.82,355.96 332.8,355.63 332.78,355.3 332.77,354.97 332.76,354.64 332.75,354.3 332.74,353.97 332.73,353.64 332.73,353.31 332.72,352.98 332.72,352.64 332.72,352.31"
       style="fill:none;stroke:#000000;stroke-width:0.5"
       id="polyline9749"
       transform="matrix(0.26458333,0,0,0.26458333,60.218461,-23.367036)" />
    <polyline
       points="332.72,352.31 332.72,351.87 332.73,351.43 332.73,351 332.74,350.56 332.76,350.12 332.77,349.69 332.79,349.26 332.81,348.82 332.83,348.39 332.86,347.96 332.89,347.52 332.92,347.09 332.95,346.66 332.99,346.23 333.03,345.8 333.07,345.38 333.11,344.95 333.16,344.52 333.21,344.1 333.26,343.67 333.32,343.25 333.37,342.82 333.43,342.4 333.5,341.98 333.56,341.56 333.63,341.14 333.7,340.72 333.77,340.3 333.85,339.88 333.92,339.46 334,339.05 334.09,338.63 334.17,338.22 334.26,337.8 334.35,337.39 334.44,336.98 334.54,336.57 334.63,336.16 334.73,335.75 334.84,335.34 334.94,334.93 335.05,334.53 335.16,334.12 335.27,333.72 335.39,333.31 335.5,332.91 335.62,332.51 335.74,332.11 335.87,331.71 335.99,331.31 336.12,330.91 336.25,330.52 336.39,330.12 336.52,329.73 336.66,329.34 336.8,328.94 336.94,328.55 337.09,328.16 337.23,327.77 337.38,327.39 337.54,327 337.69,326.61 337.85,326.23 338,325.85 338.16,325.46 338.33,325.08 338.49,324.7 338.66,324.33 338.83,323.95 339,323.57 339.17,323.2 339.35,322.82 339.53,322.45 339.71,322.08 339.89,321.71 340.08,321.34 340.26,320.97 340.45,320.6 340.64,320.24 340.83,319.87 341.03,319.51 341.23,319.15 341.43,318.79 341.63,318.43 341.83,318.07 342.04,317.72 342.24,317.36 342.45,317.01 342.67,316.66 342.88,316.31 343.09,315.96 343.31,315.61 343.53,315.26 343.75,314.92 343.98,314.57 344.2,314.23 344.43,313.89 344.66,313.55 344.89,313.21 345.12,312.87 345.36,312.54 345.6,312.2 345.84,311.87 346.08,311.54 346.32,311.21 346.57,310.88 346.81,310.55 347.06,310.23 347.31,309.9 347.56,309.58 347.82,309.26 348.07,308.94 348.33,308.62 348.59,308.31 348.85,307.99 349.12,307.68 349.38,307.37 349.65,307.06 349.92,306.75 350.19,306.44 350.46,306.14 350.73,305.83 351.01,305.53 351.29,305.23 351.57,304.93 351.85,304.63 352.13,304.34 352.41,304.05 352.7,303.75 352.99,303.46 353.28,303.17 353.57,302.89 353.86,302.6 354.16,302.32 354.45,302.04 354.75,301.76 355.05,301.48 355.35,301.2 355.65,300.93 355.96,300.65 356.26,300.38 356.57,300.11 356.88,299.84 357.19,299.58 357.5,299.31 357.82,299.05 358.13,298.79 358.45,298.53 358.77,298.27 359.09,298.02 359.41,297.76 359.73,297.51 360.06,297.26 360.38,297.01 360.71,296.77 361.04,296.52 361.37,296.28 361.7,296.04 362.03,295.8 362.37,295.57 362.71,295.33 363.04,295.1 363.38,294.87 363.72,294.64 364.07,294.41 364.41,294.19 364.75,293.97 365.1,293.75 365.45,293.53 365.8,293.31 366.15,293.09 366.5,292.88 366.85,292.67 367.2,292.46 367.56,292.26 367.92,292.05 368.27,291.85 368.63,291.65 369,291.45 369.36,291.25 369.72,291.06 370.08,290.87 370.45,290.68 370.82,290.49 371.19,290.3 371.56,290.12 371.93,289.94 372.3,289.76 372.67,289.58 373.05,289.41 373.42,289.23 373.8,289.06 374.18,288.89 374.56,288.73 374.94,288.56 375.32,288.4 375.7,288.24 376.08,288.08 376.47,287.93 376.85,287.78 377.24,287.63 377.63,287.48 378.02,287.33 378.41,287.19 378.8,287.05 379.19,286.91 379.59,286.77 379.98,286.64 380.38,286.5 380.77,286.37 381.17,286.25 381.57,286.12 381.97,286 382.37,285.88 382.77,285.76 383.18,285.64 383.58,285.53 383.98,285.42 384.39,285.31 384.8,285.2 385.2,285.1 385.61,285 386.02,284.9 386.43,284.8 386.84,284.71 387.26,284.62 387.67,284.53 388.08,284.44 388.5,284.36 388.91,284.27 389.33,284.2 389.75,284.12 390.16,284.04 390.58,283.97 391,283.9 391.42,283.84 391.85,283.77 392.27,283.71 392.69,283.65 393.12,283.6 393.54,283.54 393.97,283.49 394.39,283.44 394.82,283.4 395.25,283.35 395.68,283.31 396.11,283.28 396.54,283.24 396.97,283.21 397.4,283.18 397.83,283.15 398.26,283.13 398.7,283.1 399.13,283.08 399.56,283.07 400,283.05"
       style="fill:none;stroke:#000000;stroke-width:0.5"
       id="polyline9751"
       transform="matrix(0.26458333,0,0,0.26458333,60.218461,-23.367036)" />
  </g>
</svg>
